<?xml version="1.0" encoding="UTF-8"?>
<svg version="1.1" xmlns="http://www.w3.org/2000/svg" width="120" height="120">
<path d="M0 0 C0.84721115 0.21105881 1.6944223 0.42211761 2.56730652 0.63957214 C4.34365823 1.08484597 6.11931283 1.53290933 7.89428711 1.98364258 C10.61169795 2.66954106 13.33386103 3.3338288 16.05664062 3.99804688 C17.7880947 4.43487506 19.51922691 4.87298144 21.25 5.3125 C22.0624971 5.5074556 22.8749942 5.70241119 23.71211243 5.90327454 C26.91277507 6.73731182 29.22510171 7.36024083 31.73974609 9.55322266 C33.17825148 12.69766071 33.69827009 15.84255353 34.1875 19.234375 C35.28134554 26.06215357 36.58313381 32.81385795 38.0546875 39.5703125 C38.2520047 40.48648346 38.4493219 41.40265442 38.65261841 42.34658813 C39.46568497 46.12037365 40.28234752 49.89327339 41.11254883 53.66333008 C41.72755172 56.46373413 42.32953395 59.26669389 42.9296875 62.0703125 C43.11714035 62.90594223 43.3045932 63.74157196 43.49772644 64.6025238 C44.6900674 70.23379161 45.67424707 76.11256813 44.79296875 81.85546875 C42.51315054 84.05690756 41.23556117 84.94720393 38.48046875 86.23046875 C37.10344674 86.95973639 35.72854565 87.69301883 34.35546875 88.4296875 C33.618125 88.81302246 32.88078125 89.19635742 32.12109375 89.59130859 C27.94181933 91.86063357 23.97765907 94.47069178 19.98046875 97.04296875 C14.40866615 100.58766087 8.82322026 104.08412668 3.1171875 107.41015625 C1.3059462 108.53647437 -0.45297802 109.74706368 -2.1875 110.98828125 C-12.30410707 118.20186194 -12.30410707 118.20186194 -17.06640625 117.62109375 C-21.14030488 116.16400592 -24.62234178 113.78437263 -28.22265625 111.41796875 C-33.92934658 107.67313957 -39.92755335 104.41741262 -45.87182617 101.06933594 C-46.73396729 100.58110352 -47.5961084 100.09287109 -48.484375 99.58984375 C-49.24999756 99.15897461 -50.01562012 98.72810547 -50.80444336 98.28417969 C-51.59729736 97.81270508 -52.39015137 97.34123047 -53.20703125 96.85546875 C-54.24682129 96.28763672 -55.28661133 95.71980469 -56.35791016 95.13476562 C-59.85041808 92.34075929 -60.61372222 89.84999361 -61.515625 85.65234375 C-61.68816803 84.94558502 -61.86071106 84.23882629 -62.03848267 83.51065063 C-62.59521572 81.21344869 -63.11972561 78.91015247 -63.64453125 76.60546875 C-64.21355308 74.22061364 -64.7908385 71.83787092 -65.36930847 69.45529175 C-65.75594558 67.86257678 -66.14007089 66.26924997 -66.52168274 64.67532349 C-68.41640983 56.81799918 -70.70719362 49.10230141 -73.17553711 41.40527344 C-74.94301642 35.66691011 -75.49345966 30.86437122 -75.20703125 24.85546875 C-66.55655915 20.47784088 -57.87537527 16.18824541 -49.09179688 12.08374023 C-42.63375838 9.06444535 -36.19987012 5.99577613 -29.76953125 2.91796875 C-28.75560303 2.43287842 -27.7416748 1.94778809 -26.69702148 1.44799805 C-16.59217397 -3.39015362 -10.76462257 -2.69698223 0 0 Z " fill="#AEEDF2" transform="translate(75.20703125,3.14453125)"/>
<path d="M0 0 C0.84721115 0.21105881 1.6944223 0.42211761 2.56730652 0.63957214 C4.34365823 1.08484597 6.11931283 1.53290933 7.89428711 1.98364258 C10.61169795 2.66954106 13.33386103 3.3338288 16.05664062 3.99804688 C17.7880947 4.43487506 19.51922691 4.87298144 21.25 5.3125 C22.0624971 5.5074556 22.8749942 5.70241119 23.71211243 5.90327454 C26.91277507 6.73731182 29.22510171 7.36024083 31.73974609 9.55322266 C33.17825148 12.69766071 33.69827009 15.84255353 34.1875 19.234375 C35.28134554 26.06215357 36.58313381 32.81385795 38.0546875 39.5703125 C38.2520047 40.48648346 38.4493219 41.40265442 38.65261841 42.34658813 C39.46568497 46.12037365 40.28234752 49.89327339 41.11254883 53.66333008 C41.72755172 56.46373413 42.32953395 59.26669389 42.9296875 62.0703125 C43.11714035 62.90594223 43.3045932 63.74157196 43.49772644 64.6025238 C44.6900674 70.23379161 45.67424707 76.11256813 44.79296875 81.85546875 C42.51315054 84.05690756 41.23556117 84.94720393 38.48046875 86.23046875 C37.10344674 86.95973639 35.72854565 87.69301883 34.35546875 88.4296875 C33.618125 88.81302246 32.88078125 89.19635742 32.12109375 89.59130859 C27.94181933 91.86063357 23.97765907 94.47069178 19.98046875 97.04296875 C14.40866615 100.58766087 8.82322026 104.08412668 3.1171875 107.41015625 C1.3059462 108.53647437 -0.45297802 109.74706368 -2.1875 110.98828125 C-12.30410707 118.20186194 -12.30410707 118.20186194 -17.06640625 117.62109375 C-21.14030488 116.16400592 -24.62234178 113.78437263 -28.22265625 111.41796875 C-33.92934658 107.67313957 -39.92755335 104.41741262 -45.87182617 101.06933594 C-46.73396729 100.58110352 -47.5961084 100.09287109 -48.484375 99.58984375 C-49.24999756 99.15897461 -50.01562012 98.72810547 -50.80444336 98.28417969 C-51.59729736 97.81270508 -52.39015137 97.34123047 -53.20703125 96.85546875 C-54.24682129 96.28763672 -55.28661133 95.71980469 -56.35791016 95.13476562 C-59.85041808 92.34075929 -60.61372222 89.84999361 -61.515625 85.65234375 C-61.68816803 84.94558502 -61.86071106 84.23882629 -62.03848267 83.51065063 C-62.59521572 81.21344869 -63.11972561 78.91015247 -63.64453125 76.60546875 C-64.21355308 74.22061364 -64.7908385 71.83787092 -65.36930847 69.45529175 C-65.75594558 67.86257678 -66.14007089 66.26924997 -66.52168274 64.67532349 C-68.41640983 56.81799918 -70.70719362 49.10230141 -73.17553711 41.40527344 C-74.94301642 35.66691011 -75.49345966 30.86437122 -75.20703125 24.85546875 C-66.55655915 20.47784088 -57.87537527 16.18824541 -49.09179688 12.08374023 C-42.63375838 9.06444535 -36.19987012 5.99577613 -29.76953125 2.91796875 C-28.75560303 2.43287842 -27.7416748 1.94778809 -26.69702148 1.44799805 C-16.59217397 -3.39015362 -10.76462257 -2.69698223 0 0 Z M-13.20703125 11.85546875 C-12.71203125 16.80546875 -12.71203125 16.80546875 -12.20703125 21.85546875 C-13.85703125 21.85546875 -15.50703125 21.85546875 -17.20703125 21.85546875 C-17.53703125 22.51546875 -17.86703125 23.17546875 -18.20703125 23.85546875 C-18.78453125 23.50484375 -19.36203125 23.15421875 -19.95703125 22.79296875 C-22.62471348 21.68143449 -23.55365524 21.82835545 -26.20703125 22.85546875 C-27.19703125 23.51546875 -28.18703125 24.17546875 -29.20703125 24.85546875 C-29.20703125 25.51546875 -29.20703125 26.17546875 -29.20703125 26.85546875 C-31.08090602 27.19507065 -32.95619822 27.52685566 -34.83203125 27.85546875 C-35.87617187 28.04109375 -36.9203125 28.22671875 -37.99609375 28.41796875 C-41.1127799 28.84262672 -44.06633937 28.93092081 -47.20703125 28.85546875 C-46.87703125 29.51546875 -46.54703125 30.17546875 -46.20703125 30.85546875 C-43.89296905 31.58622523 -41.55874256 32.25685133 -39.20703125 32.85546875 C-38.87703125 32.52546875 -38.54703125 32.19546875 -38.20703125 31.85546875 C-36.51870822 31.88905203 -34.83109834 31.95898089 -33.14453125 32.04296875 C-25.1324394 32.14928119 -17.84893026 30.02778522 -10.20703125 27.85546875 C-9.71203125 29.83546875 -9.71203125 29.83546875 -9.20703125 31.85546875 C-9.97015625 31.99984375 -10.73328125 32.14421875 -11.51953125 32.29296875 C-14.28876033 32.81872815 -14.28876033 32.81872815 -17.20703125 33.85546875 C-17.20703125 34.51546875 -17.20703125 35.17546875 -17.20703125 35.85546875 C-18.16609375 35.97921875 -18.16609375 35.97921875 -19.14453125 36.10546875 C-21.97146361 36.79777872 -23.90205277 37.71402197 -26.45703125 39.04296875 C-32.85333578 41.92551388 -37.15499354 40.00870562 -43.453125 37.62890625 C-45.67514742 36.76632774 -47.88948838 35.88356637 -50.09375 34.9765625 C-53.14738637 33.8769469 -55.99680982 33.28381914 -59.20703125 32.85546875 C-57.49764805 36.27423514 -53.53185819 37.05727075 -50.14453125 38.48046875 C-49.38591797 38.8053125 -48.62730469 39.13015625 -47.84570312 39.46484375 C-45.96865326 40.26760721 -44.08815565 41.06230018 -42.20703125 41.85546875 C-42.86703125 44.49546875 -43.52703125 47.13546875 -44.20703125 49.85546875 C-44.86703125 49.85546875 -45.52703125 49.85546875 -46.20703125 49.85546875 C-45.87703125 48.53546875 -45.54703125 47.21546875 -45.20703125 45.85546875 C-45.86703125 45.85546875 -46.52703125 45.85546875 -47.20703125 45.85546875 C-47.75541429 59.65993932 -47.75541429 59.65993932 -44.20703125 72.85546875 C-44.20703125 73.51546875 -44.20703125 74.17546875 -44.20703125 74.85546875 C-42.88703125 74.85546875 -41.56703125 74.85546875 -40.20703125 74.85546875 C-39.54703125 76.50546875 -38.88703125 78.15546875 -38.20703125 79.85546875 C-39.07585938 80.11070313 -39.9446875 80.3659375 -40.83984375 80.62890625 C-44.30007644 81.88936224 -47.01264538 83.45916586 -50.08203125 85.48046875 C-51.04882812 86.11210938 -52.015625 86.74375 -53.01171875 87.39453125 C-53.73617187 87.87664062 -54.460625 88.35875 -55.20703125 88.85546875 C-54.95195522 90.78736758 -54.95195522 90.78736758 -54.20703125 92.85546875 C-51.68626236 94.58887159 -49.25204016 96.07744467 -46.58203125 97.54296875 C-45.0347291 98.42112279 -43.48786305 99.30004562 -41.94140625 100.1796875 C-41.15443359 100.62231934 -40.36746094 101.06495117 -39.55664062 101.52099609 C-35.94527124 103.5720918 -32.38812204 105.71040578 -28.83203125 107.85546875 C-27.89689697 108.41560669 -27.89689697 108.41560669 -26.94287109 108.98706055 C-24.32393604 110.55893039 -21.74916336 112.16071401 -19.20703125 113.85546875 C-13.46026382 114.70499089 -10.015941 112.41884219 -5.33203125 109.48046875 C-4.58518066 109.02639648 -3.83833008 108.57232422 -3.06884766 108.10449219 C-0.77227146 106.70261674 1.51166367 105.2820342 3.79296875 103.85546875 C4.44587891 103.44973633 5.09878906 103.04400391 5.77148438 102.62597656 C8.28977088 101.06087327 10.80520306 99.49146537 13.31396484 97.91113281 C23.0652406 91.77135191 32.94039849 85.83072626 42.79296875 79.85546875 C42.31905298 74.48486463 41.82191584 69.23010041 40.54296875 63.98046875 C40.28386719 62.90667969 40.02476563 61.83289063 39.7578125 60.7265625 C39.43941406 59.44910156 39.12101562 58.17164063 38.79296875 56.85546875 C38.58559082 56.01902832 38.37821289 55.18258789 38.16455078 54.32080078 C36.71997468 48.49583023 35.26185584 42.67435381 33.79296875 36.85546875 C32.91607217 40.09452965 32.74607619 42.80533664 32.85546875 46.16796875 C32.89684242 56.53896955 32.89684242 56.53896955 29.32421875 60.47265625 C28.25938581 61.48223842 27.16417733 62.46118794 26.03515625 63.3984375 C24.36045347 65.04367808 24.36045347 65.04367808 24.79296875 68.85546875 C22.81296875 68.36046875 22.81296875 68.36046875 20.79296875 67.85546875 C21.12296875 66.53546875 21.45296875 65.21546875 21.79296875 63.85546875 C19.48296875 63.85546875 17.17296875 63.85546875 14.79296875 63.85546875 C15.79296875 61.85546875 15.79296875 61.85546875 18.79296875 60.85546875 C18.79296875 60.19546875 18.79296875 59.53546875 18.79296875 58.85546875 C18.13296875 58.85546875 17.47296875 58.85546875 16.79296875 58.85546875 C16.79296875 57.86546875 16.79296875 56.87546875 16.79296875 55.85546875 C18.77296875 56.35046875 18.77296875 56.35046875 20.79296875 56.85546875 C20.46296875 55.86546875 20.13296875 54.87546875 19.79296875 53.85546875 C18.80296875 53.85546875 17.81296875 53.85546875 16.79296875 53.85546875 C16.79296875 52.86546875 16.79296875 51.87546875 16.79296875 50.85546875 C17.45296875 50.85546875 18.11296875 50.85546875 18.79296875 50.85546875 C18.79296875 50.19546875 18.79296875 49.53546875 18.79296875 48.85546875 C17.14296875 48.52546875 15.49296875 48.19546875 13.79296875 47.85546875 C13.63441406 47.09621094 13.47585937 46.33695313 13.3125 45.5546875 C12.13732209 39.5222975 12.13732209 39.5222975 8.41796875 34.98046875 C7.55171875 34.60921875 6.68546875 34.23796875 5.79296875 33.85546875 C4.08886335 32.22710137 2.41271434 30.56777123 0.79296875 28.85546875 C4.09296875 26.87546875 7.39296875 24.89546875 10.79296875 22.85546875 C7.01708215 21.46936807 7.01708215 21.46936807 4.5390625 22.88671875 C3.77722656 23.37140625 3.01539063 23.85609375 2.23046875 24.35546875 C-0.0859375 25.82421875 -0.0859375 25.82421875 -2.20703125 26.85546875 C-3.19703125 26.52546875 -4.18703125 26.19546875 -5.20703125 25.85546875 C-4.38203125 25.40171875 -3.55703125 24.94796875 -2.70703125 24.48046875 C-1.88203125 23.94421875 -1.05703125 23.40796875 -0.20703125 22.85546875 C-0.20703125 22.19546875 -0.20703125 21.53546875 -0.20703125 20.85546875 C-4.66203125 21.35046875 -4.66203125 21.35046875 -9.20703125 21.85546875 C-9.66276042 19.54427083 -10.11848958 17.23307292 -10.57421875 14.921875 C-10.78304687 14.23996094 -10.991875 13.55804687 -11.20703125 12.85546875 C-11.86703125 12.52546875 -12.52703125 12.19546875 -13.20703125 11.85546875 Z " fill="#AED4EC" transform="translate(75.20703125,3.14453125)"/>
<path d="M0 0 C0.66 0.33 1.32 0.66 2 1 C2.6328125 3.06640625 2.6328125 3.06640625 3.125 5.5625 C3.37636719 6.80193359 3.37636719 6.80193359 3.6328125 8.06640625 C3.75398438 8.70449219 3.87515625 9.34257812 4 10 C7.19902639 10.08886184 9.92677456 9.91058531 13 9 C13 9.66 13 10.32 13 11 C10.5 12.625 10.5 12.625 8 14 C10.89891718 15.35475399 10.89891718 15.35475399 13.12109375 13.96875 C14.66350762 12.99076077 16.20517699 12.01159637 17.74609375 11.03125 C20 10 20 10 24 11 C20.7 12.98 17.4 14.96 14 17 C17.38492378 20.64705103 17.38492378 20.64705103 21.625 23.125 C25.13223173 25.89386715 25.35402973 29.23756094 26.2265625 33.50390625 C26.81547713 36.33241276 26.81547713 36.33241276 30 38 C29.505 42.95 29.505 42.95 29 48 C28.34 48 27.68 48 27 48 C26.34 43.71 25.68 39.42 25 35 C24.01 35 23.02 35 22 35 C22 33.68 22 32.36 22 31 C21.21625 30.814375 20.4325 30.62875 19.625 30.4375 C17 29 17 29 15.875 25.5 C15.441875 23.7675 15.441875 23.7675 15 22 C11.77208445 19.8480563 10.71599191 19.79913557 7 20 C7.99085885 35.03130799 7.99085885 35.03130799 14 48 C17.34513658 49.68306119 20.62370619 50.91770192 24.19921875 52.02734375 C27 53 27 53 28 55 C27.154375 54.835 26.30875 54.67 25.4375 54.5 C21.35309271 55.09409561 20.9512205 55.84496228 18.4375 58.9375 C17.89996094 59.66839844 17.36242187 60.39929688 16.80859375 61.15234375 C14.58456671 63.42440593 13.09863118 63.59888269 10 64 C9.319375 64.350625 8.63875 64.70125 7.9375 65.0625 C6 66 6 66 2 66 C0.24837531 66.1486227 -1.50174037 66.31597267 -3.25 66.5 C-4.14203125 66.5928125 -5.0340625 66.685625 -5.953125 66.78125 C-6.96632813 66.88953125 -6.96632813 66.88953125 -8 67 C-7.7834375 68.15757813 -7.566875 69.31515625 -7.34375 70.5078125 C-7.06222343 72.04682443 -6.78098887 73.5858898 -6.5 75.125 C-6.35691406 75.88554688 -6.21382812 76.64609375 -6.06640625 77.4296875 C-5.29687544 81.68042914 -4.83355624 85.65859197 -5 90 C-6.80476105 86.74358332 -7.73948805 83.54663205 -8.625 79.9375 C-8.88539062 78.89464844 -9.14578125 77.85179688 -9.4140625 76.77734375 C-10 74 -10 74 -10 71 C-10.33515625 71.5053125 -10.6703125 72.010625 -11.015625 72.53125 C-14.46813242 75.0866492 -18.78268416 73.74591448 -22.84375 73.23828125 C-29.90858399 72.5344538 -34.38542135 74.6331055 -40 79 C-40.66 79 -41.32 79 -42 79 C-42 78.34 -42 77.68 -42 77 C-39.94178952 75.54557092 -37.90716344 74.22856463 -35.75 72.9375 C-35.16347656 72.57333984 -34.57695313 72.20917969 -33.97265625 71.83398438 C-31.04545178 70.05463874 -28.40784065 68.54829119 -25 68 C-25.66 66.35 -26.32 64.7 -27 63 C-28.32 63 -29.64 63 -31 63 C-31.12375 62.113125 -31.2475 61.22625 -31.375 60.3125 C-31.8276978 57.11860597 -31.8276978 57.11860597 -33.03125 54.875 C-34.40710163 50.79182743 -34.21272227 46.96227362 -34.125 42.6875 C-34.11597656 41.85154297 -34.10695313 41.01558594 -34.09765625 40.15429688 C-34.07420989 38.10274031 -34.03834266 36.05133223 -34 34 C-33.34 34 -32.68 34 -32 34 C-32.33 35.32 -32.66 36.64 -33 38 C-32.34 38 -31.68 38 -31 38 C-30.34 35.36 -29.68 32.72 -29 30 C-30.14339844 29.51789062 -31.28679688 29.03578125 -32.46484375 28.5390625 C-33.95587725 27.9013878 -35.44675466 27.26334805 -36.9375 26.625 C-37.69224609 26.30789062 -38.44699219 25.99078125 -39.22460938 25.6640625 C-44.88671875 23.2265625 -44.88671875 23.2265625 -46 21 C-38.92328847 21.96576299 -32.73770641 24.13137367 -26.26733398 27.05517578 C-22.41015079 28.72433044 -20.00949753 29.39992626 -16 28 C-13.92530505 27.03799061 -11.96243945 25.9513772 -9.96484375 24.83984375 C-8 24 -8 24 -4 24 C-4 23.34 -4 22.68 -4 22 C-1.09399739 20.74335022 0.79604584 20 4 20 C3.505 18.02 3.505 18.02 3 16 C1.90042969 16.28875 0.80085938 16.5775 -0.33203125 16.875 C-8.69231691 18.99962979 -16.31192602 20.58135811 -25 20 C-25.99 20 -26.98 20 -28 20 C-30.01151741 19.36893571 -32.01363702 18.70626239 -34 18 C-34 17.67 -34 17.34 -34 17 C-32.329375 17.061875 -32.329375 17.061875 -30.625 17.125 C-25.60098664 17.14300722 -20.8781803 16.11958236 -16 15 C-15.67 14.01 -15.34 13.02 -15 12 C-12 10 -12 10 -8.875 10.3125 C-6 11 -6 11 -5 12 C-4.67 11.34 -4.34 10.68 -4 10 C-2.35 10 -0.7 10 1 10 C0.67 6.7 0.34 3.4 0 0 Z " fill="#E9F6DC" transform="translate(62,15)"/>
<path d="M0 0 C0.84721115 0.21105881 1.6944223 0.42211761 2.56730652 0.63957214 C4.34365823 1.08484597 6.11931283 1.53290933 7.89428711 1.98364258 C10.61169795 2.66954106 13.33386103 3.3338288 16.05664062 3.99804688 C17.7880947 4.43487506 19.51922691 4.87298144 21.25 5.3125 C22.0624971 5.5074556 22.8749942 5.70241119 23.71211243 5.90327454 C26.91277507 6.73731182 29.22510171 7.36024083 31.73974609 9.55322266 C33.17825148 12.69766071 33.69827009 15.84255353 34.1875 19.234375 C35.28134554 26.06215357 36.58313381 32.81385795 38.0546875 39.5703125 C38.2520047 40.48648346 38.4493219 41.40265442 38.65261841 42.34658813 C39.46568497 46.12037365 40.28234752 49.89327339 41.11254883 53.66333008 C41.72755172 56.46373413 42.32953395 59.26669389 42.9296875 62.0703125 C43.11714035 62.90594223 43.3045932 63.74157196 43.49772644 64.6025238 C44.6900674 70.23379161 45.67424707 76.11256813 44.79296875 81.85546875 C42.51315054 84.05690756 41.23556117 84.94720393 38.48046875 86.23046875 C37.10344674 86.95973639 35.72854565 87.69301883 34.35546875 88.4296875 C33.618125 88.81302246 32.88078125 89.19635742 32.12109375 89.59130859 C27.94181933 91.86063357 23.97765907 94.47069178 19.98046875 97.04296875 C14.40866615 100.58766087 8.82322026 104.08412668 3.1171875 107.41015625 C1.3059462 108.53647437 -0.45297802 109.74706368 -2.1875 110.98828125 C-12.30410707 118.20186194 -12.30410707 118.20186194 -17.06640625 117.62109375 C-21.14030488 116.16400592 -24.62234178 113.78437263 -28.22265625 111.41796875 C-33.92934658 107.67313957 -39.92755335 104.41741262 -45.87182617 101.06933594 C-46.73396729 100.58110352 -47.5961084 100.09287109 -48.484375 99.58984375 C-49.24999756 99.15897461 -50.01562012 98.72810547 -50.80444336 98.28417969 C-51.59729736 97.81270508 -52.39015137 97.34123047 -53.20703125 96.85546875 C-54.24682129 96.28763672 -55.28661133 95.71980469 -56.35791016 95.13476562 C-59.85041808 92.34075929 -60.61372222 89.84999361 -61.515625 85.65234375 C-61.68816803 84.94558502 -61.86071106 84.23882629 -62.03848267 83.51065063 C-62.59521572 81.21344869 -63.11972561 78.91015247 -63.64453125 76.60546875 C-64.21355308 74.22061364 -64.7908385 71.83787092 -65.36930847 69.45529175 C-65.75594558 67.86257678 -66.14007089 66.26924997 -66.52168274 64.67532349 C-68.41640983 56.81799918 -70.70719362 49.10230141 -73.17553711 41.40527344 C-74.94301642 35.66691011 -75.49345966 30.86437122 -75.20703125 24.85546875 C-66.55655915 20.47784088 -57.87537527 16.18824541 -49.09179688 12.08374023 C-42.63375838 9.06444535 -36.19987012 5.99577613 -29.76953125 2.91796875 C-28.75560303 2.43287842 -27.7416748 1.94778809 -26.69702148 1.44799805 C-16.59217397 -3.39015362 -10.76462257 -2.69698223 0 0 Z M-23.14453125 3.10546875 C-26.39343684 4.88986766 -29.5574239 6.46526739 -33.01953125 7.79296875 C-37.98955042 9.72532457 -42.79454921 11.94670342 -47.62109375 14.2109375 C-50.209619 15.39804984 -52.79747817 16.54483339 -55.41796875 17.65625 C-56.13065918 17.96006592 -56.84334961 18.26388184 -57.57763672 18.5769043 C-58.96193768 19.16430373 -60.3488715 19.74554985 -61.73876953 20.31958008 C-65.74519944 22.02587283 -68.93973811 23.97773749 -72.20703125 26.85546875 C-72.02820976 28.83426599 -72.02820976 28.83426599 -71.20703125 30.85546875 C-69.40011439 31.79315049 -69.40011439 31.79315049 -67.08203125 32.23046875 C-62.35013247 33.47498548 -57.87067809 35.04774948 -53.33203125 36.85546875 C-52.68991699 37.10474121 -52.04780273 37.35401367 -51.38623047 37.61083984 C-47.94679882 38.98860009 -45.04350868 40.46085464 -42.20703125 42.85546875 C-42.86703125 45.16546875 -43.52703125 47.47546875 -44.20703125 49.85546875 C-44.86703125 49.85546875 -45.52703125 49.85546875 -46.20703125 49.85546875 C-45.87703125 48.53546875 -45.54703125 47.21546875 -45.20703125 45.85546875 C-45.86703125 45.85546875 -46.52703125 45.85546875 -47.20703125 45.85546875 C-47.75541429 59.65993932 -47.75541429 59.65993932 -44.20703125 72.85546875 C-44.20703125 73.51546875 -44.20703125 74.17546875 -44.20703125 74.85546875 C-42.88703125 74.85546875 -41.56703125 74.85546875 -40.20703125 74.85546875 C-39.54703125 76.50546875 -38.88703125 78.15546875 -38.20703125 79.85546875 C-39.07585938 80.11070313 -39.9446875 80.3659375 -40.83984375 80.62890625 C-44.30007644 81.88936224 -47.01264538 83.45916586 -50.08203125 85.48046875 C-51.04882812 86.11210938 -52.015625 86.74375 -53.01171875 87.39453125 C-53.73617187 87.87664062 -54.460625 88.35875 -55.20703125 88.85546875 C-54.95195522 90.78736758 -54.95195522 90.78736758 -54.20703125 92.85546875 C-51.68626236 94.58887159 -49.25204016 96.07744467 -46.58203125 97.54296875 C-45.0347291 98.42112279 -43.48786305 99.30004562 -41.94140625 100.1796875 C-41.15443359 100.62231934 -40.36746094 101.06495117 -39.55664062 101.52099609 C-35.94527124 103.5720918 -32.38812204 105.71040578 -28.83203125 107.85546875 C-28.2086084 108.22889404 -27.58518555 108.60231934 -26.94287109 108.98706055 C-24.32393604 110.55893039 -21.74916336 112.16071401 -19.20703125 113.85546875 C-13.46026382 114.70499089 -10.015941 112.41884219 -5.33203125 109.48046875 C-4.58518066 109.02639648 -3.83833008 108.57232422 -3.06884766 108.10449219 C-0.77227146 106.70261674 1.51166367 105.2820342 3.79296875 103.85546875 C4.44587891 103.44973633 5.09878906 103.04400391 5.77148438 102.62597656 C8.28977088 101.06087327 10.80520306 99.49146537 13.31396484 97.91113281 C23.0652406 91.77135191 32.94039849 85.83072626 42.79296875 79.85546875 C42.31312601 74.3207784 41.74995193 68.94967468 40.41796875 63.54296875 C40.15371094 62.4446875 39.88945313 61.34640625 39.6171875 60.21484375 C39.34519531 59.10625 39.07320313 57.99765625 38.79296875 56.85546875 C37.31048303 50.69183353 35.85811546 44.55511309 34.85546875 38.29296875 C33.93439365 32.58997874 32.92578772 26.9071346 31.85546875 21.23046875 C31.69763916 20.34029053 31.53980957 19.4501123 31.37719727 18.53295898 C31.21662842 17.69837158 31.05605957 16.86378418 30.890625 16.00390625 C30.75148682 15.25286621 30.61234863 14.50182617 30.46899414 13.72802734 C29.86499621 11.4743034 29.86499621 11.4743034 26.79296875 9.85546875 C24.49712529 9.19080611 22.18033885 8.59763319 19.85546875 8.04296875 C18.41779626 7.69863608 16.98030475 7.35354708 15.54296875 7.0078125 C14.77726562 6.82460449 14.0115625 6.64139648 13.22265625 6.45263672 C10.6749741 5.82646805 8.14043969 5.16008433 5.60546875 4.484375 C4.73269287 4.25532471 3.85991699 4.02627441 2.96069336 3.7902832 C1.26667697 3.34499073 -0.42536822 2.89210634 -2.11499023 2.43041992 C-9.27577289 0.57559297 -16.46257174 -0.79331957 -23.14453125 3.10546875 Z " fill="#6EB5D9" transform="translate(75.20703125,3.14453125)"/>
<path d="M0 0 C0.84721115 0.21105881 1.6944223 0.42211761 2.56730652 0.63957214 C4.34365823 1.08484597 6.11931283 1.53290933 7.89428711 1.98364258 C10.61169795 2.66954106 13.33386103 3.3338288 16.05664062 3.99804688 C17.7880947 4.43487506 19.51922691 4.87298144 21.25 5.3125 C22.0624971 5.5074556 22.8749942 5.70241119 23.71211243 5.90327454 C26.91277507 6.73731182 29.22510171 7.36024083 31.73974609 9.55322266 C33.17825148 12.69766071 33.69827009 15.84255353 34.1875 19.234375 C35.28134554 26.06215357 36.58313381 32.81385795 38.0546875 39.5703125 C38.2520047 40.48648346 38.4493219 41.40265442 38.65261841 42.34658813 C39.46568497 46.12037365 40.28234752 49.89327339 41.11254883 53.66333008 C41.72755172 56.46373413 42.32953395 59.26669389 42.9296875 62.0703125 C43.11714035 62.90594223 43.3045932 63.74157196 43.49772644 64.6025238 C44.6900674 70.23379161 45.67424707 76.11256813 44.79296875 81.85546875 C42.51315054 84.05690756 41.23556117 84.94720393 38.48046875 86.23046875 C37.10344674 86.95973639 35.72854565 87.69301883 34.35546875 88.4296875 C33.618125 88.81302246 32.88078125 89.19635742 32.12109375 89.59130859 C27.94181933 91.86063357 23.97765907 94.47069178 19.98046875 97.04296875 C14.40866615 100.58766087 8.82322026 104.08412668 3.1171875 107.41015625 C1.3059462 108.53647437 -0.45297802 109.74706368 -2.1875 110.98828125 C-12.30410707 118.20186194 -12.30410707 118.20186194 -17.06640625 117.62109375 C-21.14030488 116.16400592 -24.62234178 113.78437263 -28.22265625 111.41796875 C-33.92934658 107.67313957 -39.92755335 104.41741262 -45.87182617 101.06933594 C-46.73396729 100.58110352 -47.5961084 100.09287109 -48.484375 99.58984375 C-49.24999756 99.15897461 -50.01562012 98.72810547 -50.80444336 98.28417969 C-51.59729736 97.81270508 -52.39015137 97.34123047 -53.20703125 96.85546875 C-54.24682129 96.28763672 -55.28661133 95.71980469 -56.35791016 95.13476562 C-59.85041808 92.34075929 -60.61372222 89.84999361 -61.515625 85.65234375 C-61.68816803 84.94558502 -61.86071106 84.23882629 -62.03848267 83.51065063 C-62.59521572 81.21344869 -63.11972561 78.91015247 -63.64453125 76.60546875 C-64.21355308 74.22061364 -64.7908385 71.83787092 -65.36930847 69.45529175 C-65.75594558 67.86257678 -66.14007089 66.26924997 -66.52168274 64.67532349 C-68.41640983 56.81799918 -70.70719362 49.10230141 -73.17553711 41.40527344 C-74.94301642 35.66691011 -75.49345966 30.86437122 -75.20703125 24.85546875 C-66.55655915 20.47784088 -57.87537527 16.18824541 -49.09179688 12.08374023 C-42.63375838 9.06444535 -36.19987012 5.99577613 -29.76953125 2.91796875 C-28.75560303 2.43287842 -27.7416748 1.94778809 -26.69702148 1.44799805 C-16.59217397 -3.39015362 -10.76462257 -2.69698223 0 0 Z M-23.14453125 3.10546875 C-26.39343684 4.88986766 -29.5574239 6.46526739 -33.01953125 7.79296875 C-37.99122959 9.72597743 -42.79796409 11.94733934 -47.625 14.21484375 C-50.20024154 15.39434369 -52.7719513 16.52720095 -55.3828125 17.62109375 C-56.44508057 18.07005005 -56.44508057 18.07005005 -57.52880859 18.52807617 C-58.89926485 19.10450279 -60.27313213 19.67291238 -61.65087891 20.23168945 C-66.21378936 22.16170694 -69.72748709 24.28421568 -73.20703125 27.85546875 C-73.71818524 30.303853 -73.71818524 30.303853 -73.08203125 32.66796875 C-72.93507813 33.45816406 -72.788125 34.24835937 -72.63671875 35.0625 C-72.49492188 35.65417969 -72.353125 36.24585938 -72.20703125 36.85546875 C-71.54703125 36.85546875 -70.88703125 36.85546875 -70.20703125 36.85546875 C-70.08585937 37.8403125 -69.9646875 38.82515625 -69.83984375 39.83984375 C-69.12059653 44.84700729 -67.75738266 49.64774661 -66.41894531 54.51855469 C-65.03347333 59.60886715 -63.77755438 64.70421095 -62.63671875 69.85546875 C-62.35844238 71.05526367 -62.08016602 72.25505859 -61.79345703 73.49121094 C-61.24630346 75.85550209 -60.7253131 78.22603958 -60.23388672 80.60253906 C-58.55934648 87.64117954 -56.64454982 91.42241682 -50.56152344 95.46826172 C-49.78454102 95.92604004 -49.00755859 96.38381836 -48.20703125 96.85546875 C-47.20784668 97.47059326 -47.20784668 97.47059326 -46.18847656 98.09814453 C-44.30244154 99.2163146 -42.39227671 100.26265014 -40.45703125 101.29296875 C-36.40057055 103.49760864 -32.37637482 105.70166937 -28.49609375 108.20703125 C-27.91827148 108.57900635 -27.34044922 108.95098145 -26.74511719 109.33422852 C-25.18142652 110.3531984 -23.62746304 111.38705121 -22.07421875 112.421875 C-18.65399566 114.13198654 -16.98696145 114.44608284 -13.20703125 113.85546875 C-10.42425894 112.63993156 -7.90124212 111.09222076 -5.33203125 109.48046875 C-4.58518066 109.02639648 -3.83833008 108.57232422 -3.06884766 108.10449219 C-0.77227146 106.70261674 1.51166367 105.2820342 3.79296875 103.85546875 C4.44587891 103.44973633 5.09878906 103.04400391 5.77148438 102.62597656 C8.28977088 101.06087327 10.80520306 99.49146537 13.31396484 97.91113281 C23.0652406 91.77135191 32.94039849 85.83072626 42.79296875 79.85546875 C42.31312601 74.3207784 41.74995193 68.94967468 40.41796875 63.54296875 C40.15371094 62.4446875 39.88945313 61.34640625 39.6171875 60.21484375 C39.34519531 59.10625 39.07320313 57.99765625 38.79296875 56.85546875 C37.31048303 50.69183353 35.85811546 44.55511309 34.85546875 38.29296875 C33.93439365 32.58997874 32.92578772 26.9071346 31.85546875 21.23046875 C31.69763916 20.34029053 31.53980957 19.4501123 31.37719727 18.53295898 C31.21662842 17.69837158 31.05605957 16.86378418 30.890625 16.00390625 C30.75148682 15.25286621 30.61234863 14.50182617 30.46899414 13.72802734 C29.86499621 11.4743034 29.86499621 11.4743034 26.79296875 9.85546875 C24.49712529 9.19080611 22.18033885 8.59763319 19.85546875 8.04296875 C18.41779626 7.69863608 16.98030475 7.35354708 15.54296875 7.0078125 C14.77726562 6.82460449 14.0115625 6.64139648 13.22265625 6.45263672 C10.6749741 5.82646805 8.14043969 5.16008433 5.60546875 4.484375 C4.73269287 4.25532471 3.85991699 4.02627441 2.96069336 3.7902832 C1.26667697 3.34499073 -0.42536822 2.89210634 -2.11499023 2.43041992 C-9.27577289 0.57559297 -16.46257174 -0.79331957 -23.14453125 3.10546875 Z " fill="#0B1111" transform="translate(75.20703125,3.14453125)"/>
<path d="M0 0 C3.5066919 3.5066919 4.31746233 6.91664636 5.0625 11.75 C5.30613281 13.32974609 5.30613281 13.32974609 5.5546875 14.94140625 C5.70164063 15.95074219 5.84859375 16.96007812 6 18 C6.12632813 18.83402344 6.25265625 19.66804688 6.3828125 20.52734375 C6.63920959 22.34513336 6.82757852 24.17233226 7 26 C6.505 26.495 6.505 26.495 6 27 C5.97931082 28.70833509 6.0089914 30.41737778 6.0625 32.125 C6.10325958 42.62738565 6.10325958 42.62738565 2.56640625 46.6171875 C1.52116377 47.62483133 0.4469356 48.60370011 -0.66015625 49.54296875 C-2.27106084 51.29476879 -2.59817124 52.68328355 -3 55 C-4.65 54.67 -6.3 54.34 -8 54 C-7.01 53.505 -7.01 53.505 -6 53 C-6 52.01 -6 51.02 -6 50 C-8.31 50 -10.62 50 -13 50 C-12.67 49.01 -12.34 48.02 -12 47 C-11.01 47 -10.02 47 -9 47 C-9 46.34 -9 45.68 -9 45 C-9.66 45 -10.32 45 -11 45 C-11 44.01 -11 43.02 -11 42 C-10.01 42 -9.02 42 -8 42 C-8 41.34 -8 40.68 -8 40 C-8.99 40 -9.98 40 -11 40 C-11 39.01 -11 38.02 -11 37 C-10.34 37 -9.68 37 -9 37 C-9 36.34 -9 35.68 -9 35 C-10.65 35 -12.3 35 -14 35 C-17.42857143 27.71428571 -17.42857143 27.71428571 -17 23 C-17.58265625 22.89816406 -18.1653125 22.79632813 -18.765625 22.69140625 C-21.37219275 21.88482847 -22.73535414 20.75842991 -24.75 18.9375 C-25.36359375 18.38964844 -25.9771875 17.84179688 -26.609375 17.27734375 C-27.06828125 16.85582031 -27.5271875 16.43429688 -28 16 C-25.19411062 12.97300099 -22.48944812 10.94963707 -18.8671875 8.984375 C-17.89652344 8.45585937 -16.92585938 7.92734375 -15.92578125 7.3828125 C-14.91902344 6.84398437 -13.91226563 6.30515625 -12.875 5.75 C-11.86050781 5.19570313 -10.84601563 4.64140625 -9.80078125 4.0703125 C-2.27170567 0 -2.27170567 0 0 0 Z " fill="#6EB2DB" transform="translate(103,17)"/>
<path d="M0 0 C3.3532602 0.45314327 6.2763572 0.97348006 9 3 C9.93685405 5.76595006 10.61501203 8.28430018 11.1875 11.125 C11.4340332 12.22714844 11.4340332 12.22714844 11.68554688 13.3515625 C12.47963817 17.00373948 13.10197519 20.62121679 13.515625 24.3359375 C14.019009 28.14379386 15.09760014 30.6914785 17 34 C17 32.68 17 31.36 17 30 C19.97 30 22.94 30 26 30 C26 30.66 26 31.32 26 32 C30.86896303 31.40380045 35.32790951 30.43023178 40 29 C40.33 27.68 40.66 26.36 41 25 C42.65 25 44.3 25 46 25 C46 24.34 46 23.68 46 23 C46.66 23 47.32 23 48 23 C48 22.34 48 21.68 48 21 C50.35171131 21.59861742 52.6859378 22.26924352 55 23 C55.495 23.99 55.495 23.99 56 25 C55.154375 24.835 54.30875 24.67 53.4375 24.5 C49.35309271 25.09409561 48.9512205 25.84496228 46.4375 28.9375 C45.89996094 29.66839844 45.36242187 30.39929688 44.80859375 31.15234375 C42.58456671 33.42440593 41.09863118 33.59888269 38 34 C37.319375 34.350625 36.63875 34.70125 35.9375 35.0625 C34 36 34 36 30 36 C28.24837531 36.1486227 26.49825963 36.31597267 24.75 36.5 C23.41195312 36.63921875 23.41195312 36.63921875 22.046875 36.78125 C21.03367187 36.88953125 21.03367187 36.88953125 20 37 C20.2165625 38.15757813 20.433125 39.31515625 20.65625 40.5078125 C20.93777657 42.04682443 21.21901113 43.5858898 21.5 45.125 C21.64308594 45.88554688 21.78617188 46.64609375 21.93359375 47.4296875 C22.70312456 51.68042914 23.16644376 55.65859197 23 60 C21.19523895 56.74358332 20.26051195 53.54663205 19.375 49.9375 C19.11460938 48.89464844 18.85421875 47.85179687 18.5859375 46.77734375 C18 44 18 44 18 41 C17.66484375 41.5053125 17.3296875 42.010625 16.984375 42.53125 C13.53186758 45.0866492 9.21731584 43.74591448 5.15625 43.23828125 C-1.90858399 42.5344538 -6.38542135 44.6331055 -12 49 C-12.66 49 -13.32 49 -14 49 C-14 48.34 -14 47.68 -14 47 C-11.94178952 45.54557092 -9.90716344 44.22856463 -7.75 42.9375 C-6.87021484 42.39125977 -6.87021484 42.39125977 -5.97265625 41.83398438 C-3.04545178 40.05463874 -0.40784065 38.54829119 3 38 C2.34 36.35 1.68 34.7 1 33 C-0.32 33 -1.64 33 -3 33 C-3.12375 32.113125 -3.2475 31.22625 -3.375 30.3125 C-3.8276978 27.11860597 -3.8276978 27.11860597 -5.03125 24.875 C-6.40710163 20.79182743 -6.21272227 16.96227362 -6.125 12.6875 C-6.11597656 11.85154297 -6.10695313 11.01558594 -6.09765625 10.15429688 C-6.07420989 8.10274031 -6.03834266 6.05133223 -6 4 C-5.34 4 -4.68 4 -4 4 C-4.33 5.32 -4.66 6.64 -5 8 C-4.34 8 -3.68 8 -3 8 C-2.690625 6.865625 -2.38125 5.73125 -2.0625 4.5625 C-1 1 -1 1 0 0 Z " fill="#E0F9F7" transform="translate(34,45)"/>
<path d="M0 0 C6.33794157 0.93174908 6.33794157 0.93174908 9 2 C9.495 3.485 9.495 3.485 10 5 C11.32 5 12.64 5 14 5 C13.83203125 6.7734375 13.83203125 6.7734375 13 9 C10.63671875 10.8515625 10.63671875 10.8515625 7.6875 12.625 C6.23923828 13.51058594 6.23923828 13.51058594 4.76171875 14.4140625 C-1.48275862 18 -1.48275862 18 -5 18 C-5 18.66 -5 19.32 -5 20 C-5.99 20 -6.98 20 -8 20 C-8 20.66 -8 21.32 -8 22 C-9.51293945 23.11328125 -9.51293945 23.11328125 -11.61328125 24.3125 C-12.7434668 24.96605469 -12.7434668 24.96605469 -13.89648438 25.6328125 C-14.69376953 26.08398438 -15.49105469 26.53515625 -16.3125 27 C-17.87144998 27.89521328 -19.43005715 28.79102384 -20.98828125 29.6875 C-21.68477783 30.08324219 -22.38127441 30.47898437 -23.09887695 30.88671875 C-24.76902979 31.86474584 -26.38961239 32.92640826 -28 34 C-28.99 34 -29.98 34 -31 34 C-31.84836976 31.19129012 -32.67875496 28.37914854 -33.5 25.5625 C-33.85771484 24.3878418 -33.85771484 24.3878418 -34.22265625 23.18945312 C-36.07708239 16.75194522 -37.15907359 10.47722077 -35 4 C-28.54107286 3.59631705 -23.93891422 4.4084738 -18 7 C-20.27364177 9.42999536 -21.68273845 10.42805835 -25 11 C-22.69 11 -20.38 11 -18 11 C-18 10.34 -18 9.68 -18 9 C-16.824375 8.87625 -16.824375 8.87625 -15.625 8.75 C-12.89341749 8.29633683 -12.89341749 8.29633683 -11.9375 6.1875 C-11.628125 5.465625 -11.31875 4.74375 -11 4 C-7.7061475 -0.39180333 -5.35030691 -0.5262597 0 0 Z " fill="#84E4EE" transform="translate(91,79)"/>
<path d="M0 0 C0.98838867 0.19239258 1.97677734 0.38478516 2.99511719 0.58300781 C4.00993164 0.79022461 5.02474609 0.99744141 6.0703125 1.2109375 C7.00004883 1.40010742 7.92978516 1.58927734 8.88769531 1.78417969 C11.66188397 2.36381684 14.42871998 2.97113916 17.1953125 3.5859375 C18.11957031 3.781875 19.04382813 3.9778125 19.99609375 4.1796875 C26.06566686 5.5322863 31.49337175 7.45937209 37.0703125 10.2109375 C37.0703125 12.5209375 37.0703125 14.8309375 37.0703125 17.2109375 C35.0703125 14.2109375 35.0703125 14.2109375 35.0703125 12.2109375 C33.48089844 13.05978516 33.48089844 13.05978516 31.859375 13.92578125 C30.47136148 14.66668036 29.08334024 15.40756503 27.6953125 16.1484375 C26.99664062 16.52162109 26.29796875 16.89480469 25.578125 17.27929688 C18.24984513 21.19006161 18.24984513 21.19006161 15.3828125 21.5234375 C12.36477773 22.14982208 11.01562437 22.74254611 8.5078125 24.3359375 C5.0703125 26.2109375 5.0703125 26.2109375 2.1328125 25.9609375 C1.4521875 25.7134375 0.7715625 25.4659375 0.0703125 25.2109375 C4.8203125 21.2109375 4.8203125 21.2109375 7.0703125 21.2109375 C7.0703125 20.5509375 7.0703125 19.8909375 7.0703125 19.2109375 C6.5134375 19.5409375 5.9565625 19.8709375 5.3828125 20.2109375 C2.76746728 21.3418976 0.8896479 21.36756724 -1.9296875 21.2109375 C-4.29969174 14.64784883 -6.9296875 7.23400625 -6.9296875 0.2109375 C-4.25628859 -1.12576196 -2.91726296 -0.57150905 0 0 Z " fill="#B6D3E5" transform="translate(67.9296875,4.7890625)"/>
<path d="M0 0 C2.60519874 0.91948191 4.16099674 1.78599674 6.125 3.75 C6.29 4.760625 6.455 5.77125 6.625 6.8125 C6.79 7.781875 6.955 8.75125 7.125 9.75 C9.07663118 11.18637698 9.07663118 11.18637698 11.125 11.75 C11.125 13.07 11.125 14.39 11.125 15.75 C12.115 15.75 13.105 15.75 14.125 15.75 C15.88247614 20.25353262 16.31794408 23.92639811 16.125 28.75 C16.785 28.75 17.445 28.75 18.125 28.75 C18.125 25.45 18.125 22.15 18.125 18.75 C19.115 18.42 20.105 18.09 21.125 17.75 C21.125 18.41 21.125 19.07 21.125 19.75 C20.465 19.75 19.805 19.75 19.125 19.75 C19.125 20.74 19.125 21.73 19.125 22.75 C20.115 22.75 21.105 22.75 22.125 22.75 C22.455 23.74 22.785 24.73 23.125 25.75 C21.805 25.42 20.485 25.09 19.125 24.75 C19.125 25.74 19.125 26.73 19.125 27.75 C19.785 27.75 20.445 27.75 21.125 27.75 C21.125 28.41 21.125 29.07 21.125 29.75 C20.135 30.08 19.145 30.41 18.125 30.75 C17.795 31.41 17.465 32.07 17.125 32.75 C19.435 32.75 21.745 32.75 24.125 32.75 C24.125 33.74 24.125 34.73 24.125 35.75 C19.26220918 37.3641453 16.08266256 35.48118504 11.5625 33.5625 C10.79486328 33.25763672 10.02722656 32.95277344 9.23632812 32.63867188 C2.05588235 29.65255798 2.05588235 29.65255798 0.125 25.75 C-0.71763057 23.17138136 -1.43590365 20.69102896 -2.0625 18.0625 C-2.2368457 17.35222656 -2.41119141 16.64195313 -2.59082031 15.91015625 C-3.79417047 10.74823151 -4.25434047 6.06076663 -3.875 0.75 C-1.875 -0.25 -1.875 -0.25 0 0 Z " fill="#BCE2E8" transform="translate(72.875,34.25)"/>
<path d="M0 0 C0.66 0.33 1.32 0.66 2 1 C2.6328125 3.06640625 2.6328125 3.06640625 3.125 5.5625 C3.37636719 6.80193359 3.37636719 6.80193359 3.6328125 8.06640625 C3.75398438 8.70449219 3.87515625 9.34257812 4 10 C7.19902639 10.08886184 9.92677456 9.91058531 13 9 C13 9.66 13 10.32 13 11 C10.5 12.625 10.5 12.625 8 14 C10.89891718 15.35475399 10.89891718 15.35475399 13.12109375 13.96875 C14.66350762 12.99076077 16.20517699 12.01159637 17.74609375 11.03125 C20 10 20 10 24 11 C20.7 12.98 17.4 14.96 14 17 C17.38492378 20.64705103 17.38492378 20.64705103 21.625 23.125 C25.13223173 25.89386715 25.35402973 29.23756094 26.2265625 33.50390625 C26.81547713 36.33241276 26.81547713 36.33241276 30 38 C29.505 42.95 29.505 42.95 29 48 C28.34 48 27.68 48 27 48 C26.01 41.565 26.01 41.565 25 35 C24.01 35 23.02 35 22 35 C22 33.68 22 32.36 22 31 C21.21625 30.814375 20.4325 30.62875 19.625 30.4375 C17 29 17 29 15.875 25.5 C15.441875 23.7675 15.441875 23.7675 15 22 C11.77208445 19.8480563 10.71599191 19.79913557 7 20 C7.020625 21.093125 7.04125 22.18625 7.0625 23.3125 C7 27 7 27 6 30 C1.05 29.01 1.05 29.01 -4 28 C1.14285714 23.57142857 1.14285714 23.57142857 5 23 C5.33 21.68 5.66 20.36 6 19 C5.01 18.67 4.02 18.34 3 18 C3 17.34 3 16.68 3 16 C1.90042969 16.28875 0.80085938 16.5775 -0.33203125 16.875 C-8.69231691 18.99962979 -16.31192602 20.58135811 -25 20 C-25.99 20 -26.98 20 -28 20 C-30.01151741 19.36893571 -32.01363702 18.70626239 -34 18 C-34 17.67 -34 17.34 -34 17 C-32.329375 17.061875 -32.329375 17.061875 -30.625 17.125 C-25.60098664 17.14300722 -20.8781803 16.11958236 -16 15 C-15.67 14.01 -15.34 13.02 -15 12 C-12 10 -12 10 -8.875 10.3125 C-6 11 -6 11 -5 12 C-4.67 11.34 -4.34 10.68 -4 10 C-2.35 10 -0.7 10 1 10 C0.67 6.7 0.34 3.4 0 0 Z " fill="#D5EDF4" transform="translate(62,15)"/>
<path d="M0 0 C-0.69165788 5.41798672 -1.75799248 10.6822785 -3 16 C-0.93870736 13.93870736 0.19741278 11.00278272 1.5625 8.4375 C1.89185547 7.82197266 2.22121094 7.20644531 2.56054688 6.57226562 C3.37529941 5.04903262 4.18785601 3.52462541 5 2 C5.66 2 6.32 2 7 2 C7.36801906 9.93285519 6.77476512 16.5345605 4 24 C-1.71764674 21.20585589 -7.26044457 18.21767903 -12.75 15 C-13.49121094 14.57460937 -14.23242188 14.14921875 -14.99609375 13.7109375 C-18.8104074 11.47850258 -22.04719697 9.35687082 -25 6 C-16.3678233 -0.56045429 -10.74289793 -1.28636642 0 0 Z " fill="#8AE7F0" transform="translate(45,88)"/>
<path d="M0 0 C2.8670615 2.8670615 4 4.91591468 4 9 C3.34 9 2.68 9 2 9 C2.2165625 9.92619141 2.2165625 9.92619141 2.4375 10.87109375 C3.7197599 16.72140455 4.19308096 22.01449037 4 28 C3.34 28 2.68 28 2 28 C2 25.36 2 22.72 2 20 C-0.99152582 20.77479736 -0.99152582 20.77479736 -4 22 C-4.33 22.99 -4.66 23.98 -5 25 C-6.32 24.34 -7.64 23.68 -9 23 C-9 23.66 -9 24.32 -9 25 C-9.99 25.33 -10.98 25.66 -12 26 C-12.8125 24.3125 -12.8125 24.3125 -13 22 C-10.5625 19.25 -10.5625 19.25 -8 17 C-7.34 17.33 -6.68 17.66 -6 18 C-6 17.34 -6 16.68 -6 16 C-9.34373475 16.55728913 -12.03312999 17.35173889 -15 19 C-15 18.34 -15 17.68 -15 17 C-15.99 17 -16.98 17 -18 17 C-18 16.01 -18 15.02 -18 14 C-19.65 13.67 -21.3 13.34 -23 13 C-20.13568025 9.88690131 -17.36354616 7.90102214 -13.625 5.9375 C-12.65949219 5.42832031 -11.69398437 4.91914063 -10.69921875 4.39453125 C-9.80847656 3.93433594 -8.91773437 3.47414063 -8 3 C-7.01966797 2.47986328 -7.01966797 2.47986328 -6.01953125 1.94921875 C-2.27813981 0 -2.27813981 0 0 0 Z " fill="#5294C3" transform="translate(103,17)"/>
<path d="M0 0 C6.14296893 -0.27151244 11.74472767 0.767295 17.75 2 C19.61930251 2.37743079 21.4890764 2.75253655 23.359375 3.125 C24.58865723 3.37636719 24.58865723 3.37636719 25.84277344 3.6328125 C28.12820168 4.08389967 28.12820168 4.08389967 31 4 C31.82371094 4.03480469 32.64742187 4.06960937 33.49609375 4.10546875 C40.21241394 4.29277648 45.95314892 3.52973096 52.40625 1.65625 C55 1 55 1 59 1 C59.495 2.98 59.495 2.98 60 5 C57.09399739 6.25664978 55.20395416 7 52 7 C52 7.66 52 8.32 52 9 C50.33217595 9.71478173 48.66314055 10.42686226 46.98828125 11.125 C45.15802353 11.93045723 43.38668151 12.86641178 41.625 13.8125 C34.0095655 16.3072113 26.76922386 12.27088566 19.640625 9.44140625 C15.50803965 7.80522171 11.35152991 6.2414291 7.1875 4.6875 C5.80598528 4.17058441 4.42447449 3.65365833 3.04296875 3.13671875 C2.03878906 2.76160156 1.03460938 2.38648438 0 2 C0 1.34 0 0.68 0 0 Z " fill="#93D3EB" transform="translate(6,30)"/>
<path d="M0 0 C0 2.31 0 4.62 0 7 C-0.495 5.515 -0.495 5.515 -1 4 C-1.98742187 4.5775 -2.97484375 5.155 -3.9921875 5.75 C-5.28632735 6.500226 -6.58060537 7.25021368 -7.875 8 C-8.85146484 8.57234375 -8.85146484 8.57234375 -9.84765625 9.15625 C-14.7734375 12 -14.7734375 12 -17 12 C-17 12.66 -17 13.32 -17 14 C-17.66 14 -18.32 14 -19 14 C-19.33 14.99 -19.66 15.98 -20 17 C-20.33 16.67 -20.66 16.34 -21 16 C-20.67 18.64 -20.34 21.28 -20 24 C-19.34 23.34 -18.68 22.68 -18 22 C-15.375 22.375 -15.375 22.375 -13 23 C-13 24.32 -13 25.64 -13 27 C-14.32 27 -15.64 27 -17 27 C-18.22552912 31.77956356 -17.654157 35.15322628 -16.48046875 39.80859375 C-15.87501467 42.57005504 -15.85561591 45.1845102 -16 48 C-19.99182352 42.01226472 -21.48830755 36.96604362 -22.52734375 29.90234375 C-22.91213985 27.5395049 -23.40119244 25.3976545 -24.125 23.125 C-25.01847586 19.93401477 -25.16075491 17.29547559 -25 14 C-25.53625 13.86464844 -26.0725 13.72929688 -26.625 13.58984375 C-32.47642367 11.98262705 -38.00251998 9.84297393 -43.5625 7.4375 C-44.27728516 7.13255615 -44.99207031 6.8276123 -45.72851562 6.51342773 C-50.87755113 4.24489775 -50.87755113 4.24489775 -52 2 C-44.92328847 2.96576299 -38.73770641 5.13137367 -32.26733398 8.05517578 C-28.41015079 9.72433044 -26.00949753 10.39992626 -22 9 C-19.92530505 8.03799061 -17.96243945 6.9513772 -15.96484375 5.83984375 C-14 5 -14 5 -10 5 C-10 4.34 -10 3.68 -10 3 C-8.70990357 2.49596232 -7.41786211 1.99690074 -6.125 1.5 C-5.40570313 1.2215625 -4.68640625 0.943125 -3.9453125 0.65625 C-2 0 -2 0 0 0 Z " fill="#F5FCFB" transform="translate(68,34)"/>
<path d="M0 0 C1.7783146 2.66747189 2.43498645 4.10802232 3.18359375 7.10546875 C3.48970581 8.32266602 3.48970581 8.32266602 3.80200195 9.56445312 C4.01171631 10.43005859 4.22143066 11.29566406 4.4375 12.1875 C4.65559326 13.07501953 4.87368652 13.96253906 5.09838867 14.87695312 C10 35.15848152 10 35.15848152 10 43 C8.515 43.495 8.515 43.495 7 44 C5 41 5 41 5 39 C2.36 38.01 -0.28 37.02 -3 36 C-3 34.68 -3 33.36 -3 32 C-3.33 32.99 -3.66 33.98 -4 35 C-6.31 34.34 -8.62 33.68 -11 33 C-9.515 32.505 -9.515 32.505 -8 32 C-7.95875 31.319375 -7.9175 30.63875 -7.875 29.9375 C-6.79721151 26.31921008 -4.98331607 24.50222599 -2.375 21.84375 C0.78823185 17.60214365 0.1255617 12.25669017 0.0625 7.1875 C0.05798828 6.49462891 0.05347656 5.80175781 0.04882812 5.08789062 C0.03713156 3.39188932 0.01919924 1.69593297 0 0 Z " fill="#8DD6E9" transform="translate(108,40)"/>
<path d="M0 0 C3.70129644 0.38961015 5.61879622 1.11749016 8 4 C7.690625 4.886875 7.38125 5.77375 7.0625 6.6875 C5.95606829 9.88251165 5.95606829 9.88251165 5.5 12.8125 C5.335 13.534375 5.17 14.25625 5 15 C4.01 15.495 4.01 15.495 3 16 C2.67 16.99 2.34 17.98 2 19 C2.66 19 3.32 19 4 19 C4 19.99 4 20.98 4 22 C4.66 22 5.32 22 6 22 C6.48198463 23.24891614 6.96045677 24.49918808 7.4375 25.75 C7.70433594 26.44609375 7.97117187 27.1421875 8.24609375 27.859375 C8.96146693 29.89059003 9.51365652 31.9035291 10 34 C9.01 34.66 8.02 35.32 7 36 C6.01 35.67 5.02 35.34 4 35 C4.33 33.35 4.66 31.7 5 30 C3.68 30.33 2.36 30.66 1 31 C-2.37313676 24.69583663 -5.64971838 18.363475 -5 11 C-4.67 10.67 -4.34 10.34 -4 10 C-4.66 9.67 -5.32 9.34 -6 9 C-6 7.35 -6 5.7 -6 4 C-5.34 4 -4.68 4 -4 4 C-4.33 5.32 -4.66 6.64 -5 8 C-4.34 8 -3.68 8 -3 8 C-2.690625 6.865625 -2.38125 5.73125 -2.0625 4.5625 C-1 1 -1 1 0 0 Z " fill="#A3E0EB" transform="translate(34,45)"/>
<path d="M0 0 C0.99 0.33 1.98 0.66 3 1 C2.67 1.33 2.34 1.66 2 2 C1.93342151 7.96543313 3.53688178 12.85911734 6.16015625 18.15234375 C7 20 7 20 7 22 C8.32 21.67 9.64 21.34 11 21 C11 22.65 11 24.3 11 26 C12.65 25.67 14.3 25.34 16 25 C15.505 24.2575 15.01 23.515 14.5 22.75 C13 20 13 20 13 16 C13.99 15.67 14.98 15.34 16 15 C16.33 18.3 16.66 21.6 17 25 C18.32 24.67 19.64 24.34 21 24 C21.12375 24.639375 21.2475 25.27875 21.375 25.9375 C21.58125 26.618125 21.7875 27.29875 22 28 C22.66 28.33 23.32 28.66 24 29 C24 32 24 32 22.984375 33.71875 C19.44875114 36.00159375 15.16372142 34.73921518 11.15625 34.23828125 C4.09141601 33.5344538 -0.38542135 35.6331055 -6 40 C-6.66 40 -7.32 40 -8 40 C-8 39.34 -8 38.68 -8 38 C-5.94178952 36.54557092 -3.90716344 35.22856463 -1.75 33.9375 C-0.87021484 33.39125977 -0.87021484 33.39125977 0.02734375 32.83398438 C2.95454822 31.05463874 5.59215935 29.54829119 9 29 C8.34 27.35 7.68 25.7 7 24 C5.68 24 4.36 24 3 24 C2.87625 23.113125 2.7525 22.22625 2.625 21.3125 C2.15406553 18.10192765 2.15406553 18.10192765 0.96875 15.71875 C-0.212596 12.40335962 -0.19590566 9.69733008 -0.125 6.1875 C-0.10695313 5.02605469 -0.08890625 3.86460938 -0.0703125 2.66796875 C-0.04710937 1.78753906 -0.02390625 0.90710937 0 0 Z " fill="#C2F4F8" transform="translate(28,54)"/>
<path d="M0 0 C2.82948892 2.82948892 3.14753457 6.15135471 4 9.9375 C5.28245159 15.7386091 5.28245159 15.7386091 8 21 C9.96752828 22.06246527 11.96587579 23.07137808 14 24 C14 24.66 14 25.32 14 26 C13.34 26 12.68 26 12 26 C12 26.66 12 27.32 12 28 C10.35 28.33 8.7 28.66 7 29 C7 30.32 7 31.64 7 33 C5.865625 33.144375 4.73125 33.28875 3.5625 33.4375 C0.19222799 33.61171478 0.19222799 33.61171478 -1 35 C-3.33297433 35.04092937 -5.66705225 35.04241723 -8 35 C-8 34.34 -8 33.68 -8 33 C-10.31 33 -12.62 33 -15 33 C-11.84559881 29.4882036 -8.53598933 27.44790407 -4.375 25.25 C-3.22773437 24.63640625 -2.08046875 24.0228125 -0.8984375 23.390625 C2 22 2 22 4 22 C3.79503906 21.24976562 3.59007813 20.49953125 3.37890625 19.7265625 C1.64572339 13.14212617 0.43604086 6.79622301 0 0 Z " fill="#E5F7F1" transform="translate(68,42)"/>
<path d="M0 0 C1.50433594 0.29197266 1.50433594 0.29197266 3.0390625 0.58984375 C4.19535156 0.82380859 4.19535156 0.82380859 5.375 1.0625 C5.045 1.7225 4.715 2.3825 4.375 3.0625 C5.01308594 3.23265625 5.65117188 3.4028125 6.30859375 3.578125 C7.13488281 3.82046875 7.96117188 4.0628125 8.8125 4.3125 C9.63621094 4.54453125 10.45992187 4.7765625 11.30859375 5.015625 C13.375 6.0625 13.375 6.0625 14.16015625 8.171875 C14.23105469 8.79578125 14.30195312 9.4196875 14.375 10.0625 C13.199375 10.495625 13.199375 10.495625 12 10.9375 C9.27828368 11.91162254 9.27828368 11.91162254 7.375 14.0625 C6.570625 14.371875 5.76625 14.68125 4.9375 15 C2.40434779 16.0503314 1.14354204 17.01471448 -0.625 19.0625 C-1.615 18.7325 -2.605 18.4025 -3.625 18.0625 C-4.51215839 15.57608284 -5.20251873 13.24135156 -5.8125 10.6875 C-5.98974609 10.00171875 -6.16699219 9.3159375 -6.34960938 8.609375 C-7.08587576 5.68705128 -7.625 3.08671556 -7.625 0.0625 C-4.81015955 -1.34492022 -3.05563887 -0.60402164 0 0 Z " fill="#82AFCD" transform="translate(68.625,4.9375)"/>
<path d="M0 0 C0.66 0 1.32 0 2 0 C3.32 4.95 4.64 9.9 6 15 C6.66 15 7.32 15 8 15 C8.20496094 15.90363281 8.40992187 16.80726562 8.62109375 17.73828125 C8.89050781 18.91777344 9.15992187 20.09726563 9.4375 21.3125 C9.70433594 22.48425781 9.97117187 23.65601563 10.24609375 24.86328125 C10.95313969 28.00236971 10.95313969 28.00236971 12 31 C6.36529617 31.5497272 3.61012242 29.95047835 -1 27 C-1.16737362 24.15464838 -1.04868698 22.13307775 -0.0625 19.4375 C1.50114313 14.3786546 1.67623796 9.26539325 2 4 C-1.03656917 6.5988655 -2.46163739 9.62071728 -4.1875 13.1875 C-4.98220703 14.81751953 -4.98220703 14.81751953 -5.79296875 16.48046875 C-6.19128906 17.31191406 -6.58960938 18.14335938 -7 19 C-7.66 18.67 -8.32 18.34 -9 18 C-7.68 12.72 -6.36 7.44 -5 2 C-3.68 2.33 -2.36 2.66 -1 3 C-0.67 2.01 -0.34 1.02 0 0 Z " fill="#BCF6F8" transform="translate(50,86)"/>
<path d="M0 0 C0.99 0 1.98 0 3 0 C3 1.32 3 2.64 3 4 C3.99 4 4.98 4 6 4 C7.75747614 8.50353262 8.19294408 12.17639811 8 17 C8.66 17 9.32 17 10 17 C10 13.7 10 10.4 10 7 C10.99 6.67 11.98 6.34 13 6 C13 6.66 13 7.32 13 8 C12.34 8 11.68 8 11 8 C11 8.99 11 9.98 11 11 C11.99 11 12.98 11 14 11 C14.33 11.99 14.66 12.98 15 14 C13.68 13.67 12.36 13.34 11 13 C11 13.99 11 14.98 11 16 C11.66 16 12.32 16 13 16 C13 16.66 13 17.32 13 18 C12.01 18.33 11.02 18.66 10 19 C9.67 19.66 9.34 20.32 9 21 C11.31 21 13.62 21 16 21 C16 21.99 16 22.98 16 24 C11.10821056 25.87873073 7.20679291 23.64344004 2.66015625 21.66015625 C-0.18345942 19.88550624 -0.91816784 19.19242556 -1.6875 16 C-1.82180711 14.66936479 -1.9289913 13.33550973 -2 12 C-2.268125 11.154375 -2.53625 10.30875 -2.8125 9.4375 C-3.09749887 5.73251465 -1.62354403 3.31202983 0 0 Z " fill="#97D6E9" transform="translate(81,46)"/>
<path d="M0 0 C0.66 0 1.32 0 2 0 C2.36801906 7.93285519 1.77476512 14.5345605 -1 22 C-6.71764674 19.20585589 -12.26044457 16.21767903 -17.75 13 C-18.49121094 12.57460937 -19.23242188 12.14921875 -19.99609375 11.7109375 C-23.8104074 9.47850258 -27.04719697 7.35687082 -30 4 C-27 2 -27 2 -24 2 C-23.67 3.32 -23.34 4.64 -23 6 C-20.69 6.66 -18.38 7.32 -16 8 C-16 8.99 -16 9.98 -16 11 C-14.68 11 -13.36 11 -12 11 C-12 11.66 -12 12.32 -12 13 C-10.05396726 13.59070014 -10.05396726 13.59070014 -8 14 C-5.93870736 11.93870736 -4.80258722 9.00278272 -3.4375 6.4375 C-3.10814453 5.82197266 -2.77878906 5.20644531 -2.43945312 4.57226562 C-1.62470059 3.04903262 -0.81214399 1.52462541 0 0 Z " fill="#A2E4E6" transform="translate(50,90)"/>
<path d="M0 0 C0.99 0.33 1.98 0.66 3 1 C3.03738281 1.76183594 3.07476562 2.52367187 3.11328125 3.30859375 C3.49886039 9.36445439 4.220861 14.60821151 6.4765625 20.2578125 C7 22 7 22 6 24 C7.32 24 8.64 24 10 24 C10.66 25.65 11.32 27.3 12 29 C11.25234375 29.39832031 10.5046875 29.79664062 9.734375 30.20703125 C8.74953125 30.73683594 7.7646875 31.26664063 6.75 31.8125 C5.28820312 32.59560547 5.28820312 32.59560547 3.796875 33.39453125 C1.02207169 34.90755519 1.02207169 34.90755519 -1.234375 36.69921875 C-3 38 -3 38 -5 38 C-5.33 38.66 -5.66 39.32 -6 40 C-7.42258812 36.17679443 -8.24042276 33.08718695 -8 29 C-7.46375 29.495 -6.9275 29.99 -6.375 30.5 C-3.40641555 32.37489544 -1.44687573 32.23501425 2 32 C1.84225098 31.42403076 1.68450195 30.84806152 1.52197266 30.25463867 C0.6857558 26.64263557 0.58445416 23.0056697 0.375 19.3125 C0.3234375 18.52810547 0.271875 17.74371094 0.21875 16.93554688 C0.10258883 14.95909867 0.04627523 12.97931794 0 11 C0.33 10.67 0.66 10.34 1 10 C1.23075082 8.65252916 1.41153063 7.29622435 1.5625 5.9375 C1.706875 4.638125 1.85125 3.33875 2 2 C1.34 2 0.68 2 0 2 C0 1.34 0 0.68 0 0 Z " fill="#8ECEE0" transform="translate(25,54)"/>
<path d="M0 0 C0.66 0.66 1.32 1.32 2 2 C1.49364014 2.30067383 0.98728027 2.60134766 0.46557617 2.91113281 C-9.13635025 8.62114457 -18.69252822 14.38838795 -28.125 20.375 C-28.91567871 20.87435059 -29.70635742 21.37370117 -30.52099609 21.88818359 C-33.78815852 23.95293051 -37.04294231 26.02832038 -40.26953125 28.15625 C-41.59017578 29.00703125 -41.59017578 29.00703125 -42.9375 29.875 C-43.64777344 30.34679687 -44.35804687 30.81859375 -45.08984375 31.3046875 C-47 32 -47 32 -49.25390625 31.1328125 C-49.83011719 30.75898437 -50.40632813 30.38515625 -51 30 C-50.01 29.34 -49.02 28.68 -48 28 C-47.35804687 27.56042969 -46.71609375 27.12085937 -46.0546875 26.66796875 C-31.82058047 17 -31.82058047 17 -28 17 C-28 16.34 -28 15.68 -28 15 C-27.01 15 -26.02 15 -25 15 C-25 14.34 -25 13.68 -25 13 C-24.18208984 12.67128906 -24.18208984 12.67128906 -23.34765625 12.3359375 C-18.13991886 10.14601716 -13.62909307 7.56920175 -9.04296875 4.26953125 C-6.97817836 2.9864397 -5.34322054 2.54659303 -3 2 C-2.01 1.34 -1.02 0.68 0 0 Z " fill="#AAE1E2" transform="translate(111,84)"/>
<path d="M0 0 C0.33 0 0.66 0 1 0 C3.46135018 9.66223048 5.61411174 18.98619978 6 29 C5.01 29.33 4.02 29.66 3 30 C2.34 27.36 1.68 24.72 1 22 C0.01 22 -0.98 22 -2 22 C-2 21.01 -2 20.02 -2 19 C-2.66 19 -3.32 19 -4 19 C-4 18.01 -4 17.02 -4 16 C-4.66 16 -5.32 16 -6 16 C-5.67 14.68 -5.34 13.36 -5 12 C-4.34 12 -3.68 12 -3 12 C-3.0309375 10.9171875 -3.0309375 10.9171875 -3.0625 9.8125 C-2.90909091 2.90909091 -2.90909091 2.90909091 0 0 Z " fill="#D5EEE8" transform="translate(42,48)"/>
<path d="M0 0 C6.09454058 -0.2602352 11.66259027 0.73082184 17.625 1.9375 C19.0171875 2.21110352 19.0171875 2.21110352 20.4375 2.49023438 C22.95967333 2.98708084 25.4800663 3.49193637 28 4 C29.66662756 4.3335288 31.3332835 4.66691591 33 5 C31.84826645 7.46800047 30.95216435 9.04783565 29 11 C23.4431185 10.65533267 18.54695479 8.96771656 13.375 7.0625 C12.63765625 6.79759766 11.9003125 6.53269531 11.140625 6.25976562 C7.39816967 4.90832342 3.68326985 3.50679221 0 2 C0 1.34 0 0.68 0 0 Z " fill="#64AADC" transform="translate(6,30)"/>
<path d="M0 0 C-1 3 -1 3 -2.60375977 4.05566406 C-3.29268311 4.37245117 -3.98160645 4.68923828 -4.69140625 5.015625 C-5.46403809 5.3763208 -6.23666992 5.7370166 -7.03271484 6.10864258 C-7.86754395 6.48529053 -8.70237305 6.86193848 -9.5625 7.25 C-10.83794678 7.84107544 -10.83794678 7.84107544 -12.13916016 8.4440918 C-16.28385194 10.35361327 -20.45013668 12.20630858 -24.64453125 14.00390625 C-25.35988037 14.31102539 -26.07522949 14.61814453 -26.81225586 14.93457031 C-28.14931776 15.50364057 -29.48982375 16.06471181 -30.83422852 16.61621094 C-34.73540522 18.26152796 -38.05080727 19.92674945 -41 23 C-41.3893486 25.60161203 -41.3893486 25.60161203 -40.8125 28.25 C-40.67457031 29.14203125 -40.53664062 30.0340625 -40.39453125 30.953125 C-40.26433594 31.62859375 -40.13414063 32.3040625 -40 33 C-40.99 32.67 -41.98 32.34 -43 32 C-43.96070434 29.11788698 -44.10581883 27.30149956 -44.0625 24.3125 C-44.05347656 23.50425781 -44.04445312 22.69601563 -44.03515625 21.86328125 C-44.02355469 21.24839844 -44.01195312 20.63351563 -44 20 C-33.08616219 14.47698114 -22.10155623 9.13565582 -11 4 C-9.515 3.31164062 -9.515 3.31164062 -8 2.609375 C-2.26672535 0 -2.26672535 0 0 0 Z " fill="#090E0F" transform="translate(44,8)"/>
<path d="M0 0 C3.3382203 0.63441291 5.56400172 1.86354933 8.375 3.75 C14.27177846 7.59572508 20.30777624 11.18011102 26.375 14.75 C27.33841309 15.31686523 28.30182617 15.88373047 29.29443359 16.46777344 C31.05828119 17.50504047 32.82254913 18.54159334 34.58740234 19.57714844 C36.28443092 20.57798658 37.97567697 21.58866262 39.66259766 22.60644531 C41.73768634 23.84360911 43.82442572 24.95250127 46 26 C45.505 26.495 45.505 26.495 45 27 C39.00019092 27 35.46111164 24.5898791 30.57421875 21.3046875 C25.04863396 17.65388409 19.20509366 14.51093435 13.43701172 11.2644043 C3.23186891 5.49468228 3.23186891 5.49468228 0 3 C0 2.01 0 1.02 0 0 Z " fill="#090D0D" transform="translate(16,93)"/>
<path d="M0 0 C0.33 0.66 0.66 1.32 1 2 C1.66 2 2.32 2 3 2 C3 2.99 3 3.98 3 5 C3.66 5 4.32 5 5 5 C6.79275866 8.11910856 7.34290718 10.67682428 7.625 14.25 C7.69976562 15.14203125 7.77453125 16.0340625 7.8515625 16.953125 C7.90054688 17.62859375 7.94953125 18.3040625 8 19 C7.01 19.33 6.02 19.66 5 20 C3 17 3 17 3 15 C0.36 14.01 -2.28 13.02 -5 12 C-5.36666667 4.66666667 -5.36666667 4.66666667 -3.625 1.5 C-2 0 -2 0 0 0 Z " fill="#A0E7F2" transform="translate(110,64)"/>
<path d="M0 0 C6.33794157 0.93174908 6.33794157 0.93174908 9 2 C9.33 2.99 9.66 3.98 10 5 C11.32 5 12.64 5 14 5 C13.75 6.875 13.75 6.875 13 9 C10.9375 10.25 10.9375 10.25 9 11 C9 9.02 9 7.04 9 5 C7.4176994 4.66179834 5.83410625 4.32964061 4.25 4 C3.36828125 3.814375 2.4865625 3.62875 1.578125 3.4375 C-1.22143965 2.88846325 -1.22143965 2.88846325 -5 3 C-5.433125 3.86625 -5.433125 3.86625 -5.875 4.75 C-6.91666667 6.83333333 -7.95833333 8.91666667 -9 11 C-11.97 11 -14.94 11 -18 11 C-18 10.34 -18 9.68 -18 9 C-17.21625 8.9175 -16.4325 8.835 -15.625 8.75 C-12.89341749 8.29633683 -12.89341749 8.29633683 -11.9375 6.1875 C-11.628125 5.465625 -11.31875 4.74375 -11 4 C-7.7061475 -0.39180333 -5.35030691 -0.5262597 0 0 Z M-20 11 C-18 12 -18 12 -18 12 Z " fill="#98EAEF" transform="translate(91,79)"/>
<path d="M0 0 C2.61393983 0.922567 4.18747605 1.74327876 6.125 3.75 C6.375 6.9375 6.375 6.9375 6.125 9.75 C5.465 9.75 4.805 9.75 4.125 9.75 C4.125 10.41 4.125 11.07 4.125 11.75 C4.785 11.75 5.445 11.75 6.125 11.75 C5.3125 14.1875 5.3125 14.1875 4.125 16.75 C3.135 17.08 2.145 17.41 1.125 17.75 C1.455 16.43 1.785 15.11 2.125 13.75 C0.805 13.42 -0.515 13.09 -1.875 12.75 C-1.875 11.43 -1.875 10.11 -1.875 8.75 C-2.535 8.75 -3.195 8.75 -3.875 8.75 C-3.875 6.11 -3.875 3.47 -3.875 0.75 C-1.875 -0.25 -1.875 -0.25 0 0 Z " fill="#8DCBEA" transform="translate(72.875,34.25)"/>
<path d="M0 0 C0.86625 0.2475 1.7325 0.495 2.625 0.75 C0.20898162 3.46143769 -2.34964894 4.96065207 -5.55859375 6.6328125 C-6.56857422 7.16003906 -7.57855469 7.68726563 -8.61914062 8.23046875 C-9.67294922 8.77316406 -10.72675781 9.31585938 -11.8125 9.875 C-13.38741211 10.70064453 -13.38741211 10.70064453 -14.99414062 11.54296875 C-24.34111918 16.3921979 -24.34111918 16.3921979 -27.375 16.75 C-28.035 16.09 -28.695 15.43 -29.375 14.75 C-23.37516265 11.1900965 -17.4135036 7.65982609 -11.109375 4.6640625 C-9.06445856 3.64227481 -9.06445856 3.64227481 -6.25 1.4375 C-3.375 -0.25 -3.375 -0.25 0 0 Z " fill="#498BB7" transform="translate(97.375,14.25)"/>
<path d="M0 0 C1.67542976 0.28604898 3.34385343 0.61781233 5 1 C5 1.99 5 2.98 5 4 C4.01 4.33 3.02 4.66 2 5 C0.16282685 12.41430591 -0.23576736 19.37685526 0 27 C-2 26 -2 26 -2.8515625 23.890625 C-3.10679688 23.01921875 -3.36203125 22.1478125 -3.625 21.25 C-3.88539062 20.38890625 -4.14578125 19.5278125 -4.4140625 18.640625 C-5.00326063 15.98530542 -5.18002777 13.70989174 -5 11 C-4.67 10.67 -4.34 10.34 -4 10 C-4.66 9.67 -5.32 9.34 -6 9 C-6 7.35 -6 5.7 -6 4 C-5.34 4 -4.68 4 -4 4 C-4.33 5.32 -4.66 6.64 -5 8 C-4.34 8 -3.68 8 -3 8 C-2.690625 6.865625 -2.38125 5.73125 -2.0625 4.5625 C-1 1 -1 1 0 0 Z " fill="#92D3E8" transform="translate(34,45)"/>
<path d="M0 0 C0 0.66 0 1.32 0 2 C-9.89670077 5.50946836 -18.45789428 7.31107853 -29 7 C-29.99 7 -30.98 7 -32 7 C-34.01151741 6.36893571 -36.01363702 5.70626239 -38 5 C-38 4.67 -38 4.34 -38 4 C-35.02148438 4.04882812 -35.02148438 4.04882812 -32.04296875 4.09765625 C-29.79694539 4.08263217 -29.79694539 4.08263217 -27 3 C-24.97033967 2.9713556 -22.96476136 3.0641685 -20.9375 3.16015625 C-18.67071664 3.13022844 -18.67071664 3.13022844 -16 1 C-10.74910345 -0.07867255 -5.34068123 -0.11363152 0 0 Z " fill="#E0F1F9" transform="translate(66,28)"/>
<path d="M0 0 C0.33 0.99 0.66 1.98 1 3 C-0.175625 3.433125 -0.175625 3.433125 -1.375 3.875 C-4.09671632 4.84912254 -4.09671632 4.84912254 -6 7 C-6.804375 7.309375 -7.60875 7.61875 -8.4375 7.9375 C-10.97065221 8.9878314 -12.23145796 9.95221448 -14 12 C-14.99 11.67 -15.98 11.34 -17 11 C-17.33 9.02 -17.66 7.04 -18 5 C-17.360625 4.87625 -16.72125 4.7525 -16.0625 4.625 C-15.381875 4.41875 -14.70125 4.2125 -14 4 C-13.67 3.34 -13.34 2.68 -13 2 C-8.29525994 -1.02447575 -5.41778279 -1.19191221 0 0 Z " fill="#9ABDD8" transform="translate(82,12)"/>
<path d="M0 0 C2.35171131 0.59861742 4.6859378 1.26924352 7 2 C7.33 2.66 7.66 3.32 8 4 C6.7315625 3.7525 6.7315625 3.7525 5.4375 3.5 C1.35309271 4.09409561 0.9512205 4.84496228 -1.5625 7.9375 C-2.36880859 9.03384766 -2.36880859 9.03384766 -3.19140625 10.15234375 C-5.41603935 12.42502508 -6.90130033 12.59451587 -10 13 C-10.70125 13.37125 -11.4025 13.7425 -12.125 14.125 C-14 15 -14 15 -17 14 C-17 13.01 -17 12.02 -17 11 C-13.81237635 8.87491756 -11.73487777 8.4979837 -8 8 C-7.67 6.68 -7.34 5.36 -7 4 C-5.35 4 -3.7 4 -2 4 C-2 3.34 -2 2.68 -2 2 C-1.34 2 -0.68 2 0 2 C0 1.34 0 0.68 0 0 Z " fill="#CFF4F5" transform="translate(82,66)"/>
<path d="M0 0 C0.66 0 1.32 0 2 0 C3.17571451 3.67410785 3.07366746 7.16929183 3 11 C3.66 11 4.32 11 5 11 C5 7.7 5 4.4 5 1 C5.99 0.67 6.98 0.34 8 0 C8 0.66 8 1.32 8 2 C7.34 2 6.68 2 6 2 C6 2.99 6 3.98 6 5 C6.99 5 7.98 5 9 5 C9.33 5.99 9.66 6.98 10 8 C8.68 7.67 7.36 7.34 6 7 C6 7.99 6 8.98 6 10 C6.66 10 7.32 10 8 10 C8 10.66 8 11.32 8 12 C7.01 12.33 6.02 12.66 5 13 C4.67 13.66 4.34 14.32 4 15 C6.31 15 8.62 15 11 15 C11 15.99 11 16.98 11 18 C7.84979535 19.38609004 6.68081978 18.89180331 3.3125 17.75 C0 16 0 16 -1 13 C-0.34 13 0.32 13 1 13 C0.855625 12.38511719 0.71125 11.77023438 0.5625 11.13671875 C0.376875 10.32847656 0.19125 9.52023438 0 8.6875 C-0.185625 7.88699219 -0.37125 7.08648437 -0.5625 6.26171875 C-1 4 -1 4 -1 1 C-0.67 0.67 -0.34 0.34 0 0 Z " fill="#8FCDE6" transform="translate(86,52)"/>
<path d="M0 0 C0.66 0 1.32 0 2 0 C2.3690205 12.66970387 2.3690205 12.66970387 0 18 C-1.65 18.33 -3.3 18.66 -5 19 C-6.54219802 13.16167891 -6.00781673 10.33191998 -3.0625 5 C-2.0613067 3.32146181 -1.04674339 1.65051711 0 0 Z " fill="#92EBF1" transform="translate(50,90)"/>
<path d="M0 0 C-2.91765 1.9451 -4.62537285 2.45276317 -8 3 C-8 3.66 -8 4.32 -8 5 C-9.66498757 5.7135661 -11.3306914 6.42550807 -13 7.12890625 C-14.87919563 7.94738403 -16.72278027 8.84627803 -18.5625 9.75 C-22.29991943 11.10906161 -24.21084117 11.01660359 -28 10 C-26.68 9.34 -25.36 8.68 -24 8 C-24 7.01 -24 6.02 -24 5 C-23.34 5 -22.68 5 -22 5 C-21.67 4.34 -21.34 3.68 -21 3 C-19 2.5 -19 2.5 -16 2 C-14.54123815 1.64760248 -13.0829412 1.29327746 -11.625 0.9375 C-7.63727305 0.0357527 -4.07706779 -0.17349225 0 0 Z " fill="#B5E5EE" transform="translate(66,34)"/>
<path d="M0 0 C6.45892714 -0.40368295 11.06108578 0.4084738 17 3 C14.21466571 6.11990898 12.15654359 6.53816182 8 7 C8 7.66 8 8.32 8 9 C6.68 9 5.36 9 4 9 C3.67 7.02 3.34 5.04 3 3 C2.01 3.495 2.01 3.495 1 4 C0.53476937 5.89533342 0.53476937 5.89533342 0.375 8.0625 C0.25125 9.361875 0.1275 10.66125 0 12 C-0.33 12 -0.66 12 -1 12 C-1.02712066 10.56260487 -1.04645067 9.12506137 -1.0625 7.6875 C-1.07410156 6.88699219 -1.08570313 6.08648437 -1.09765625 5.26171875 C-1 3 -1 3 0 0 Z " fill="#90ECF0" transform="translate(56,83)"/>
<path d="M0 0 C2.31 0.33 4.62 0.66 7 1 C7 4.38023517 6.12544378 6.83468937 5 10 C4.34 10 3.68 10 3 10 C3.33 8.68 3.66 7.36 4 6 C3.34 6 2.68 6 2 6 C2 7.98 2 9.96 2 12 C1.01 11.67 0.02 11.34 -1 11 C-1 11.66 -1 12.32 -1 13 C-0.34 13 0.32 13 1 13 C1 15.64 1 18.28 1 21 C0.01 21 -0.98 21 -2 21 C-1.34 19.02 -0.68 17.04 0 15 C-0.66 15 -1.32 15 -2 15 C-3.625 13 -3.625 13 -5 11 C-2.25 4.25 -2.25 4.25 0 2 C0 1.34 0 0.68 0 0 Z " fill="#79C0DF" transform="translate(26,43)"/>
<path d="M0 0 C8.14917336 0.25190644 14.80989889 1.00549938 22 5 C22 7.31 22 9.62 22 12 C20 9 20 9 20 7 C18.41058594 7.84884766 18.41058594 7.84884766 16.7890625 8.71484375 C15.40104898 9.45574286 14.01302774 10.19662753 12.625 10.9375 C11.57699219 11.49727539 11.57699219 11.49727539 10.5078125 12.06835938 C5.2265625 14.88671875 5.2265625 14.88671875 3 16 C2.34 15.34 1.68 14.68 1 14 C5.95 11.36 10.9 8.72 16 6 C10.72 4.35 5.44 2.7 0 1 C0 0.67 0 0.34 0 0 Z " fill="#B7DEE3" transform="translate(83,10)"/>
<path d="M0 0 C0.66 0 1.32 0 2 0 C3.09506492 3.28519475 3.09960608 5.73663415 3.0625 9.1875 C3.05347656 10.27417969 3.04445313 11.36085938 3.03515625 12.48046875 C3.02355469 13.31191406 3.01195312 14.14335938 3 15 C2.67 15 2.34 15 2 15 C2 11.37 2 7.74 2 4 C-1.01490557 7.01490557 -2.34911378 9.38816849 -4.1875 13.1875 C-4.98220703 14.81751953 -4.98220703 14.81751953 -5.79296875 16.48046875 C-6.19128906 17.31191406 -6.58960938 18.14335938 -7 19 C-7.66 18.67 -8.32 18.34 -9 18 C-7.68 12.72 -6.36 7.44 -5 2 C-3.68 2.33 -2.36 2.66 -1 3 C-0.67 2.01 -0.34 1.02 0 0 Z " fill="#A7F4F9" transform="translate(50,86)"/>
<path d="M0 0 C-1.175625 0.433125 -1.175625 0.433125 -2.375 0.875 C-5.09671632 1.84912254 -5.09671632 1.84912254 -7 4 C-6.34 4.33 -5.68 4.66 -5 5 C-8.3 5 -11.6 5 -15 5 C-15 5.66 -15 6.32 -15 7 C-13.948125 7.185625 -13.948125 7.185625 -12.875 7.375 C-9.82343613 8.03838345 -6.94659062 8.97211955 -4 10 C-4.33 10.66 -4.66 11.32 -5 12 C-10.94 10.515 -10.94 10.515 -17 9 C-17.33 7.68 -17.66 6.36 -18 5 C-13.31304335 0.31304335 -6.42404033 -2.14134678 0 0 Z " fill="#B9E1EC" transform="translate(21,25)"/>
<path d="M0 0 C0.33 0.66 0.66 1.32 1 2 C1.66 2 2.32 2 3 2 C3 1.34 3 0.68 3 0 C4.98 0 6.96 0 9 0 C6.4696646 2.78765765 3.60660199 4.67463495 0.4375 6.6875 C-0.53316406 7.31011719 -1.50382812 7.93273437 -2.50390625 8.57421875 C-5 10 -5 10 -7 10 C-7.33 10.66 -7.66 11.32 -8 12 C-9.42258812 8.17679443 -10.24042276 5.08718695 -10 1 C-9.195625 1.7425 -9.195625 1.7425 -8.375 2.5 C-5.40641555 4.37489544 -3.44687573 4.23501425 0 4 C-0.33 3.01 -0.66 2.02 -1 1 C-0.67 0.67 -0.34 0.34 0 0 Z " fill="#80C6D9" transform="translate(27,82)"/>
<path d="M0 0 C0.99 0.33 1.98 0.66 3 1 C2.67 1.33 2.34 1.66 2 2 C1.93342151 7.96543313 3.53688178 12.85911734 6.16015625 18.15234375 C7 20 7 20 7 22 C8.32 21.67 9.64 21.34 11 21 C10.979375 21.94875 10.95875 22.8975 10.9375 23.875 C10.77448174 26.90666283 10.77448174 26.90666283 12 29 C10.0625 28.1875 10.0625 28.1875 8 27 C7.67 26.01 7.34 25.02 7 24 C5.68 24 4.36 24 3 24 C2.87625 23.113125 2.7525 22.22625 2.625 21.3125 C2.15406553 18.10192765 2.15406553 18.10192765 0.96875 15.71875 C-0.212596 12.40335962 -0.19590566 9.69733008 -0.125 6.1875 C-0.10695313 5.02605469 -0.08890625 3.86460938 -0.0703125 2.66796875 C-0.04710938 1.78753906 -0.02390625 0.90710937 0 0 Z " fill="#DFF2F6" transform="translate(28,54)"/>
<path d="M0 0 C0 0.66 0 1.32 0 2 C0.66 1.67 1.32 1.34 2 1 C0.60869565 5.17391304 0.60869565 5.17391304 -2 7 C-5.6875 7.1875 -5.6875 7.1875 -9 7 C-9 6.34 -9 5.68 -9 5 C-10.65 5 -12.3 5 -14 5 C-9.67519838 0.21995611 -6.42249375 -1.64296352 0 0 Z " fill="#E1F2DF" transform="translate(69,70)"/>
<path d="M0 0 C0.99 0.495 0.99 0.495 2 1 C4.39087443 8.88549869 5.51129982 16.78132885 5 25 C3.35 25.66 1.7 26.32 0 27 C0.33 25.68 0.66 24.36 1 23 C1.66 23 2.32 23 3 23 C2.7834375 22.26136719 2.566875 21.52273437 2.34375 20.76171875 C0.39856507 13.67440142 -0.38996766 7.33716934 0 0 Z " fill="#091112" transform="translate(115,60)"/>
<path d="M0 0 C1.04414062 0.71736328 1.04414062 0.71736328 2.109375 1.44921875 C3.16898438 2.15498047 3.16898438 2.15498047 4.25 2.875 C4.78109375 3.29136719 5.3121875 3.70773438 5.859375 4.13671875 C5.859375 4.46671875 5.859375 4.79671875 5.859375 5.13671875 C5.07433594 5.10191406 4.28929688 5.06710938 3.48046875 5.03125 C-5.19307787 4.80775984 -10.21359291 5.74902713 -17.140625 11.13671875 C-17.800625 11.13671875 -18.460625 11.13671875 -19.140625 11.13671875 C-19.140625 10.47671875 -19.140625 9.81671875 -19.140625 9.13671875 C-17.0817489 7.7085966 -15.04291566 6.40873635 -12.890625 5.13671875 C-12.30410156 4.7809375 -11.71757812 4.42515625 -11.11328125 4.05859375 C-9.46637105 3.06674671 -7.80387184 2.10091982 -6.140625 1.13671875 C-5.4290625 0.67652344 -4.7175 0.21632813 -3.984375 -0.2578125 C-2.140625 -0.86328125 -2.140625 -0.86328125 0 0 Z " fill="#BBF4F8" transform="translate(39.140625,82.86328125)"/>
<path d="M0 0 C0.33 0.99 0.66 1.98 1 3 C-0.12019531 3.20496094 -1.24039063 3.40992188 -2.39453125 3.62109375 C-3.86720824 3.89311689 -5.33986336 4.16525849 -6.8125 4.4375 C-7.55048828 4.57220703 -8.28847656 4.70691406 -9.04882812 4.84570312 C-12.11315076 5.41419737 -15.03928953 6.01309651 -18 7 C-19.66621616 7.03874921 -21.33394172 7.0450286 -23 7 C-23 6.01 -23 5.02 -23 4 C-21.44539063 3.69255859 -21.44539063 3.69255859 -19.859375 3.37890625 C-18.48957311 3.10682231 -17.11978201 2.83468404 -15.75 2.5625 C-15.06808594 2.42779297 -14.38617188 2.29308594 -13.68359375 2.15429688 C-9.70505875 1.36402404 -9.70505875 1.36402404 -5.765625 0.40234375 C-4 0 -4 0 0 0 Z " fill="#91D4EA" transform="translate(65,31)"/>
<path d="M0 0 C0.66 0 1.32 0 2 0 C2 1.32 2 2.64 2 4 C2.99 3.67 3.98 3.34 5 3 C6.0625 4.875 6.0625 4.875 7 7 C6.67 7.66 6.34 8.32 6 9 C6.144375 9.556875 6.28875 10.11375 6.4375 10.6875 C7.19758892 13.81231 7.06158477 16.79759201 7 20 C3.24370299 17.26619072 2.77797404 13.1501341 1.8125 8.875 C1.63525391 8.13378906 1.45800781 7.39257812 1.27539062 6.62890625 C0 1.24173504 0 1.24173504 0 0 Z " fill="#DDEFDD" transform="translate(69,43)"/>
<path d="M0 0 C8.9139678 1.21649443 16.78311921 4.51604255 25 8 C25 8.99 25 9.98 25 11 C16.1288064 8.80829335 8.17478919 4.97839741 0 1 C0 0.67 0 0.34 0 0 Z " fill="#E1EFF7" transform="translate(16,36)"/>
<path d="M0 0 C0.33 1.32 0.66 2.64 1 4 C3.31 4.66 5.62 5.32 8 6 C7.67 7.32 7.34 8.64 7 10 C1.73829306 8.58832253 -1.72171358 6.25149768 -6 3 C-3.375 0 -3.375 0 0 0 Z " fill="#93D7D8" transform="translate(26,92)"/>
<path d="M0 0 C0.66 0 1.32 0 2 0 C2.50744423 1.89385437 3.00564574 3.79018666 3.5 5.6875 C3.7784375 6.74324219 4.056875 7.79898438 4.34375 8.88671875 C4.94200035 11.72484688 5.20792468 14.11504505 5 17 C4.67 17.33 4.34 17.66 4 18 C3.95919217 19.99958364 3.95745644 22.00045254 4 24 C3.34 23.67 2.68 23.34 2 23 C1.62109375 20.41015625 1.62109375 20.41015625 1.4375 17.0625 C1.08477607 11.35593067 0.6031472 5.68498318 0 0 Z " fill="#70BAD2" transform="translate(105,26)"/>
<path d="M0 0 C4.82360189 -0.19294408 8.49646738 0.24252386 13 2 C13 2.66 13 3.32 13 4 C13.99 4.33 14.98 4.66 16 5 C16 5.33 16 5.66 16 6 C10.04492601 5.6083965 5.37180176 4.62875405 0 2 C0 1.34 0 0.68 0 0 Z " fill="#68A9D6" transform="translate(6,30)"/>
<path d="M0 0 C0 1.65 0 3.3 0 5 C-6.625 8 -6.625 8 -10 8 C-10.33 6.68 -10.66 5.36 -11 4 C-9.5437455 3.32880451 -8.08492133 2.66318193 -6.625 2 C-5.81289063 1.62875 -5.00078125 1.2575 -4.1640625 0.875 C-2 0 -2 0 0 0 Z " fill="#84C0DC" transform="translate(59,4)"/>
<path d="M0 0 C1.64826111 2.96687001 2.44271087 5.65626525 3 9 C0 10 0 10 -2.0625 9 C-2.701875 8.67 -3.34125 8.34 -4 8 C-4.99 8.495 -4.99 8.495 -6 9 C-5.67 6.69 -5.34 4.38 -5 2 C-3.35 2.33 -1.7 2.66 0 3 C0 2.01 0 1.02 0 0 Z " fill="#BBF9FA" transform="translate(112,75)"/>
<path d="M0 0 C0.33 0.99 0.66 1.98 1 3 C1.99 3.33 2.98 3.66 4 4 C6.23379981 9.31097302 6.17638558 14.47098776 5 20 C2.83614399 16.75421598 2.2255829 14.34716433 1.375 10.5625 C0.98441406 8.86287109 0.98441406 8.86287109 0.5859375 7.12890625 C0 4 0 4 0 0 Z " fill="#090F13" transform="translate(110,43)"/>
<path d="M0 0 C2.97 0.33 5.94 0.66 9 1 C7 5 7 5 5 7 C1.375 6.625 1.375 6.625 -2 6 C-1.67 4.68 -1.34 3.36 -1 2 C-0.01 2 0.98 2 2 2 C1.34 1.34 0.68 0.68 0 0 Z " fill="#7EBDDF" transform="translate(30,34)"/>
<path d="M0 0 C2.64 0.33 5.28 0.66 8 1 C6.3125 3 6.3125 3 4 5 C1.3125 5.1875 1.3125 5.1875 -1 5 C-1.33 5.33 -1.66 5.66 -2 6 C-3.66617115 6.04063832 -5.33388095 6.042721 -7 6 C-7 5.01 -7 4.02 -7 3 C-3.535 2.505 -3.535 2.505 0 2 C0 1.34 0 0.68 0 0 Z " fill="#BCD8E9" transform="translate(73,20)"/>
<path d="M0 0 C0 1.32 0 2.64 0 4 C-1.38481328 4.87191947 -2.78345246 5.72190384 -4.1875 6.5625 C-4.96480469 7.03816406 -5.74210937 7.51382812 -6.54296875 8.00390625 C-9.48360967 9.19605797 -11.00446363 8.88855164 -14 8 C-4.57142857 0 -4.57142857 0 0 0 Z " fill="#61A4CD" transform="translate(82,22)"/>
<path d="M0 0 C2.4375 0.8125 2.4375 0.8125 5 2 C5.33 2.99 5.66 3.98 6 5 C8.01508358 5.73323796 8.01508358 5.73323796 10 6 C9.1875 8.4375 9.1875 8.4375 8 11 C7.01 11.33 6.02 11.66 5 12 C5.33 10.68 5.66 9.36 6 8 C4.68 7.67 3.36 7.34 2 7 C2 5.68 2 4.36 2 3 C1.34 3 0.68 3 0 3 C0 2.01 0 1.02 0 0 Z " fill="#A2D2E0" transform="translate(69,40)"/>
<path d="M0 0 C2.72096434 2.72096434 3.06547659 5.30001959 4.0625 9 C5.2330986 13.61255634 5.2330986 13.61255634 7 18 C7.039992 19.99960012 7.04346799 22.00047242 7 24 C3.32411798 21.28258578 2.78870187 17.34128043 1.8125 13.125 C1.63525391 12.41730469 1.45800781 11.70960937 1.27539062 10.98046875 C0.37781525 7.25847666 -0.21781624 3.83056145 0 0 Z " fill="#84DFE9" transform="translate(4,35)"/>
<path d="M0 0 C0.33 0 0.66 0 1 0 C1 1.98 1 3.96 1 6 C-0.65 6 -2.3 6 -4 6 C-4.33 6.99 -4.66 7.98 -5 9 C-5.33 8.34 -5.66 7.68 -6 7 C-9.02934491 6.34227572 -9.02934491 6.34227572 -12 6 C-10.29171079 3.89366282 -9.47851584 3.06198392 -6.73828125 2.70703125 C-5.93777344 2.74183594 -5.13726562 2.77664062 -4.3125 2.8125 C-3.10013672 2.85310547 -3.10013672 2.85310547 -1.86328125 2.89453125 C-1.24839844 2.92933594 -0.63351563 2.96414062 0 3 C0 2.01 0 1.02 0 0 Z " fill="#BBDDF0" transform="translate(62,19)"/>
<path d="M0 0 C7.31110994 -0.3689719 13.21256822 0.18447274 20 3 C20 3.66 20 4.32 20 5 C13.13963599 4.34034961 6.65556077 2.7637236 0 1 C0 0.67 0 0.34 0 0 Z " fill="#1A2323" transform="translate(74,6)"/>
<path d="M0 0 C2 3 2 3 2.5 5.625 C2.665 6.40875 2.83 7.1925 3 8 C3.66 8.33 4.32 8.66 5 9 C5.4140625 11.94140625 5.4140625 11.94140625 5.625 15.5625 C5.69976563 16.76003906 5.77453125 17.95757812 5.8515625 19.19140625 C5.90054687 20.11824219 5.94953125 21.04507813 6 22 C3.32792565 19.32792565 2.90734652 16.87468333 1.875 13.25 C1.52179687 12.03828125 1.16859375 10.8265625 0.8046875 9.578125 C0.05360562 6.23836286 -0.15669393 3.40548132 0 0 Z " fill="#84E0E7" transform="translate(11,60)"/>
<path d="M0 0 C0 0.66 0 1.32 0 2 C-2.5 3.625 -2.5 3.625 -5 5 C-4.01 6.485 -4.01 6.485 -3 8 C-4.65 8.33 -6.3 8.66 -8 9 C-8 8.34 -8 7.68 -8 7 C-9.65 7 -11.3 7 -13 7 C-11.68 6.67 -10.36 6.34 -9 6 C-9 4.68 -9 3.36 -9 2 C-3.375 0 -3.375 0 0 0 Z " fill="#C4E1F1" transform="translate(75,24)"/>
<path d="M0 0 C-0.9375 1.875 -0.9375 1.875 -3 4 C-5.95485056 4.95351561 -8.9369519 5.51196718 -12 6 C-12.33 5.01 -12.66 4.02 -13 3 C-4.738041 -1.77676538 -4.738041 -1.77676538 0 0 Z " fill="#99CEDB" transform="translate(48,11)"/>
<path d="M0 0 C-1 3 -1 3 -3.109375 4.38671875 C-3.98078125 4.81597656 -4.8521875 5.24523437 -5.75 5.6875 C-7.04164062 6.34298828 -7.04164062 6.34298828 -8.359375 7.01171875 C-11.11028252 8.04127438 -13.09070905 8.19360389 -16 8 C-13.59937903 4.39906854 -11.96174006 3.89814836 -8 2.3125 C-6.9275 1.87550781 -5.855 1.43851563 -4.75 0.98828125 C-2 0 -2 0 0 0 Z " fill="#040606" transform="translate(44,8)"/>
<path d="M0 0 C0.66 0.66 1.32 1.32 2 2 C1.690625 2.886875 1.38125 3.77375 1.0625 4.6875 C0.1709329 7.46709155 -0.49377007 10.13136375 -1 13 C-1.99 13.33 -2.98 13.66 -4 14 C-4.38338879 8.76035318 -3.26296201 5.61644249 -1 1 C-0.67 0.67 -0.34 0.34 0 0 Z " fill="#B3E5ED" transform="translate(40,47)"/>
<path d="M0 0 C0.66 0.33 1.32 0.66 2 1 C0.875 3.5 0.875 3.5 -1 6 C-3 6 -5 6 -7 6 C-9.21614416 7.19267348 -11.21941286 8.54062664 -13.265625 10.00390625 C-13.83796875 10.33261719 -14.4103125 10.66132812 -15 11 C-15.66 10.67 -16.32 10.34 -17 10 C-11.52284415 6.19641955 -6.11878625 2.68367818 0 0 Z " fill="#F0FBED" transform="translate(70,64)"/>
<path d="M0 0 C2.41046992 3.85675187 2.71654315 7.53555468 3 12 C2.01 13.485 2.01 13.485 1 15 C1 14.01 1 13.02 1 12 C0.34 12 -0.32 12 -1 12 C-1 11.01 -1 10.02 -1 9 C-1.66 9 -2.32 9 -3 9 C-2.67 7.68 -2.34 6.36 -2 5 C-1.34 5 -0.68 5 0 5 C0 3.35 0 1.7 0 0 Z " fill="#C9ECEE" transform="translate(39,55)"/>
<path d="M0 0 C0.33 0.99 0.66 1.98 1 3 C1.99 2.67 2.98 2.34 4 2 C4.33 2.99 4.66 3.98 5 5 C5.99 5.66 6.98 6.32 8 7 C7.67 10.3 7.34 13.6 7 17 C6.34 17 5.68 17 5 17 C4.34 12.71 3.68 8.42 3 4 C2.01 4 1.02 4 0 4 C0 2.68 0 1.36 0 0 Z " fill="#C4E2F5" transform="translate(84,46)"/>
<path d="M0 0 C3.1875 0.875 3.1875 0.875 6 2 C6 2.99 6 3.98 6 5 C6.99 5.33 7.98 5.66 9 6 C5.25 7.125 5.25 7.125 3 6 C3 5.34 3 4.68 3 4 C1.02 4.33 -0.96 4.66 -3 5 C-3 4.01 -3 3.02 -3 2 C-2.01 1.34 -1.02 0.68 0 0 Z " fill="#6BADD6" transform="translate(79,29)"/>
<path d="M0 0 C0 3.99191204 -1.25498212 5.18079244 -4 8 C-6.75 8.8125 -6.75 8.8125 -9 9 C-9 9.66 -9 10.32 -9 11 C-13.455 11.495 -13.455 11.495 -18 12 C-16 10 -16 10 -12.375 8.8125 C-7.28976063 7.02428396 -3.81711728 3.70544629 0 0 Z " fill="#D0F4FA" transform="translate(82,79)"/>
<path d="M0 0 C1.32 0.66 2.64 1.32 4 2 C4 5 4 5 2.75 6.75 C1 8 1 8 -0.8125 7.9375 C-3.80712309 6.6540901 -6.34315608 4.87186731 -9 3 C-8.34 2.67 -7.68 2.34 -7 2 C-4.5249829 3.11431765 -2.32116581 4.58150978 0 6 C0 4.02 0 2.04 0 0 Z " fill="#CAF9FB" transform="translate(48,81)"/>
<path d="M0 0 C2.31 0.33 4.62 0.66 7 1 C7 4.38023517 6.12544378 6.83468937 5 10 C4.34 10 3.68 10 3 10 C3.33 8.68 3.66 7.36 4 6 C3.01 5.67 2.02 5.34 1 5 C0.67 3.35 0.34 1.7 0 0 Z " fill="#85C8E3" transform="translate(26,43)"/>
<path d="M0 0 C4.95918367 4.95918367 4.95918367 4.95918367 5.125 9.1875 C5.08375 10.115625 5.0425 11.04375 5 12 C4.34 12 3.68 12 3 12 C3 11.01 3 10.02 3 9 C2.01 9.33 1.02 9.66 0 10 C0 6.7 0 3.4 0 0 Z " fill="#8FCEDA" transform="translate(110,57)"/>
<path d="M0 0 C0.66 0.33 1.32 0.66 2 1 C-0.21928194 3.90802461 -1.92969143 5.95312762 -5 8 C-8 7 -8 7 -11 5 C-9.9275 4.54625 -8.855 4.0925 -7.75 3.625 C-5.66142361 2.73893729 -3.68620227 1.8303796 -1.6875 0.75 C-1.130625 0.5025 -0.57375 0.255 0 0 Z " fill="#1B2425" transform="translate(69,112)"/>
<path d="M0 0 C1.32 0 2.64 0 4 0 C4 2 4 2 2.375 4.1875 C0 6 0 6 -3.25 5.75 C-4.1575 5.5025 -5.065 5.255 -6 5 C-6 5.66 -6 6.32 -6 7 C-6.99 6.67 -7.98 6.34 -9 6 C-6.76362469 3.76362469 -4.90380073 3.16152029 -2 2 C-1.34 1.34 -0.68 0.68 0 0 Z " fill="#ABC9DF" transform="translate(79,15)"/>
<path d="M0 0 C1.58409994 0.11487748 3.16728963 0.24234508 4.75 0.375 C6.07257813 0.47941406 6.07257813 0.47941406 7.421875 0.5859375 C10.0512314 1.00822807 11.76337938 1.57050769 14 3 C14.99 4.485 14.99 4.485 16 6 C15.01 6.495 15.01 6.495 14 7 C12.265625 6.29296875 12.265625 6.29296875 10.25 5.1875 C6.90654977 3.42425709 3.63156259 2.08946878 0 1 C0 0.67 0 0.34 0 0 Z " fill="#A4D5DD" transform="translate(72,7)"/>
<path d="M0 0 C2.475 0.495 2.475 0.495 5 1 C5 1.99 5 2.98 5 4 C5.66 4.33 6.32 4.66 7 5 C6.34 5.66 5.68 6.32 5 7 C3.68 7 2.36 7 1 7 C0.67 4.69 0.34 2.38 0 0 Z " fill="#6DA0C2" transform="translate(62,6)"/>
<path d="M0 0 C0 0.99 0 1.98 0 3 C-3.22644858 6.07979183 -5.53987117 8.2566452 -10 9 C-11.3479743 9.63654342 -12.68596724 10.29605388 -14 11 C-14.99 10.34 -15.98 9.68 -17 9 C-15.02 8.67 -13.04 8.34 -11 8 C-11 7.34 -11 6.68 -11 6 C-9.6696875 5.62875 -9.6696875 5.62875 -8.3125 5.25 C-4.89572865 3.96065232 -2.7202252 2.40019871 0 0 Z " fill="#C1F2F4" transform="translate(82,70)"/>
<path d="M0 0 C2.0625 0.6875 2.0625 0.6875 5.0625 2.6875 C4.7325 4.0075 4.4025 5.3275 4.0625 6.6875 C3.4025 6.6875 2.7425 6.6875 2.0625 6.6875 C2.0625 5.6975 2.0625 4.7075 2.0625 3.6875 C0.0825 3.6875 -1.8975 3.6875 -3.9375 3.6875 C-3.9375 2.6975 -3.9375 1.7075 -3.9375 0.6875 C-1.9375 -0.3125 -1.9375 -0.3125 0 0 Z " fill="#7FC0E1" transform="translate(72.9375,34.3125)"/>
<path d="M0 0 C0 0.66 0 1.32 0 2 C1.98 2 3.96 2 6 2 C5.67 2.99 5.34 3.98 5 5 C2.8125 5.8125 2.8125 5.8125 0 6 C-2.8125 3.5625 -2.8125 3.5625 -5 1 C-3 0 -3 0 0 0 Z " fill="#80B9DE" transform="translate(82,33)"/>
<path d="M0 0 C3.63 0 7.26 0 11 0 C11 0.66 11 1.32 11 2 C7.7 2.33 4.4 2.66 1 3 C0.67 4.32 0.34 5.64 0 7 C0 4.69 0 2.38 0 0 Z " fill="#C8F4F7" transform="translate(53,79)"/>
<path d="M0 0 C0 2.31 0 4.62 0 7 C-0.33 6.01 -0.66 5.02 -1 4 C-2.65 4.66 -4.3 5.32 -6 6 C-6 5.34 -6 4.68 -6 4 C-7.32 3.67 -8.64 3.34 -10 3 C-8.70990357 2.49596232 -7.41786211 1.99690074 -6.125 1.5 C-5.04605469 1.08234375 -5.04605469 1.08234375 -3.9453125 0.65625 C-2 0 -2 0 0 0 Z " fill="#E4F8F9" transform="translate(68,34)"/>
<path d="M0 0 C0.99 0.66 1.98 1.32 3 2 C1.87926138 2.83905565 0.75325453 3.67107831 -0.375 4.5 C-1.00148438 4.9640625 -1.62796875 5.428125 -2.2734375 5.90625 C-4 7 -4 7 -6 7 C-6 5.68 -6 4.36 -6 3 C-5.01 3 -4.02 3 -3 3 C-3 2.34 -3 1.68 -3 1 C-2.01 0.67 -1.02 0.34 0 0 Z " fill="#AEE8EA" transform="translate(89,96)"/>
<path d="M0 0 C0.33 0 0.66 0 1 0 C1.33 3.3 1.66 6.6 2 10 C1.01 10.33 0.02 10.66 -1 11 C-3 8 -3 8 -2.75 5.5 C-2 3 -2 3 0 0 Z " fill="#80CBD1" transform="translate(116,73)"/>
<path d="M0 0 C2.97 0.495 2.97 0.495 6 1 C6 2.32 6 3.64 6 5 C4.68 5 3.36 5 2 5 C1.67 5.66 1.34 6.32 1 7 C0.34 6.67 -0.32 6.34 -1 6 C-0.67 4.02 -0.34 2.04 0 0 Z " fill="#F3FBF0" transform="translate(49,56)"/>
<path d="M0 0 C1.57554035 2.88628401 2.46276373 5.53342384 3.125 8.75 C3.29257813 9.54921875 3.46015625 10.3484375 3.6328125 11.171875 C3.81457031 12.07679687 3.81457031 12.07679687 4 13 C3.34 12.34 2.68 11.68 2 11 C2 10.01 2 9.02 2 8 C1.01 7.67 0.02 7.34 -1 7 C-1.33 5.02 -1.66 3.04 -2 1 C-1.34 0.67 -0.68 0.34 0 0 Z " fill="#1C3131" transform="translate(4,40)"/>
<path d="M0 0 C1.32 0 2.64 0 4 0 C4.33 1.98 4.66 3.96 5 6 C4.34 6 3.68 6 3 6 C3 5.01 3 4.02 3 3 C2.01 3.495 2.01 3.495 1 4 C0.53476937 5.89533342 0.53476937 5.89533342 0.375 8.0625 C0.25125 9.361875 0.1275 10.66125 0 12 C-0.33 12 -0.66 12 -1 12 C-1.02712066 10.56260487 -1.04645067 9.12506137 -1.0625 7.6875 C-1.07410156 6.88699219 -1.08570313 6.08648437 -1.09765625 5.26171875 C-1 3 -1 3 0 0 Z " fill="#9BE9E2" transform="translate(56,83)"/>
<path d="M0 0 C0.66 0 1.32 0 2 0 C2 3.3 2 6.6 2 10 C0.35 10.66 -1.3 11.32 -3 12 C-2.67 10.68 -2.34 9.36 -2 8 C-1.34 8 -0.68 8 0 8 C0 5.36 0 2.72 0 0 Z " fill="#030707" transform="translate(118,75)"/>
<path d="M0 0 C-4.04649647 2.69766432 -6.29174615 3.20257684 -11.125 3.5625 C-12.22070312 3.64628906 -13.31640625 3.73007812 -14.4453125 3.81640625 C-15.28835937 3.87699219 -16.13140625 3.93757813 -17 4 C-16 2 -16 2 -14.1796875 1.3671875 C-9.33738332 0.3330683 -4.95047466 -0.2106585 0 0 Z " fill="#A0DFEC" transform="translate(66,34)"/>
<path d="M0 0 C-3.63 1.98 -7.26 3.96 -11 6 C-11.33 5.01 -11.66 4.02 -12 3 C-10.75823305 2.29773859 -9.50614401 1.61370891 -8.25 0.9375 C-7.20585938 0.36322266 -7.20585938 0.36322266 -6.140625 -0.22265625 C-4 -1 -4 -1 0 0 Z " fill="#D9E9F2" transform="translate(86,26)"/>
<path d="M0 0 C2.29400986 1.00362931 4.06970438 2.28940003 6 3.875 C1.83861737 3.95659574 -1.9472484 3.85748524 -6 2.875 C-2.59813084 -0.16238318 -2.59813084 -0.16238318 0 0 Z " fill="#A9EDF1" transform="translate(39,84.125)"/>
<path d="M0 0 C3.46941546 0.45822468 6.67395049 0.89131683 10 2 C10 2.99 10 3.98 10 5 C6.7 4.01 3.4 3.02 0 2 C0 1.34 0 0.68 0 0 Z " fill="#E8F7FA" transform="translate(31,42)"/>
<path d="M0 0 C2.64 0 5.28 0 8 0 C8 0.99 8 1.98 8 3 C5.39417629 3.93065133 4.35801776 4.14917407 1.75 3.0625 C1.1725 2.711875 0.595 2.36125 0 2 C0 1.34 0 0.68 0 0 Z " fill="#89CADF" transform="translate(89,67)"/>
<path d="M0 0 C2 2 2 2 2 6 C3.32 6 4.64 6 6 6 C5.67 6.99 5.34 7.98 5 9 C1.535 7.02 1.535 7.02 -2 5 C-1.34 3.35 -0.68 1.7 0 0 Z " fill="#99D8D9" transform="translate(43,103)"/>
<path d="M0 0 C1.485 0.99 1.485 0.99 3 2 C3.29296875 4.1640625 3.29296875 4.1640625 3.1875 6.625 C3.16042969 7.44226563 3.13335938 8.25953125 3.10546875 9.1015625 C3.07066406 9.72804688 3.03585938 10.35453125 3 11 C2.34 10.67 1.68 10.34 1 10 C0.5859375 7.71484375 0.5859375 7.71484375 0.375 4.9375 C0.30023437 4.01839844 0.22546875 3.09929687 0.1484375 2.15234375 C0.09945313 1.44207031 0.05046875 0.73179688 0 0 Z " fill="#8ADCE5" transform="translate(17,83)"/>
<path d="M0 0 C2.12046792 3.53411321 2.53199289 6.94393835 3 11 C2.34 11 1.68 11 1 11 C1 10.01 1 9.02 1 8 C0.34 8 -0.32 8 -1 8 C-0.67 5.36 -0.34 2.72 0 0 Z " fill="#A2DAE4" transform="translate(29,68)"/>
<path d="M0 0 C0.99 0.33 1.98 0.66 3 1 C3 2.65 3 4.3 3 6 C1.35 5.67 -0.3 5.34 -2 5 C-1.125 1.125 -1.125 1.125 0 0 Z " fill="#B4E7EC" transform="translate(78,59)"/>
<path d="M0 0 C1.32 0 2.64 0 4 0 C3 3 3 3 0.5625 4.75 C-0.7059375 5.36875 -0.7059375 5.36875 -2 6 C-2.66 5.67 -3.32 5.34 -4 5 C-2.25 2.5 -2.25 2.5 0 0 Z " fill="#090B0C" transform="translate(88,100)"/>
<path d="M0 0 C0.99 0 1.98 0 3 0 C3 1.32 3 2.64 3 4 C3.66 4 4.32 4 5 4 C5 4.99 5 5.98 5 7 C3.68 6.67 2.36 6.34 1 6 C0.67 4.02 0.34 2.04 0 0 Z " fill="#97CAEA" transform="translate(87,45)"/>
<path d="M0 0 C0.33 0.99 0.66 1.98 1 3 C1.99 3.33 2.98 3.66 4 4 C3.67 6.64 3.34 9.28 3 12 C0.60926555 8.17482487 0.44033448 4.40334476 0 0 Z " fill="#243B3D" transform="translate(110,43)"/>
<path d="M0 0 C4.455 0.99 4.455 0.99 9 2 C8.67 3.32 8.34 4.64 8 6 C4.5625 4.6875 4.5625 4.6875 1 3 C0.67 2.01 0.34 1.02 0 0 Z " fill="#DAECD0" transform="translate(59,43)"/>
<path d="M0 0 C-0.33 0.99 -0.66 1.98 -1 3 C-4.0625 4.1875 -4.0625 4.1875 -7 5 C-6.625 3.0625 -6.625 3.0625 -6 1 C-4 0 -4 0 0 0 Z " fill="#4582B2" transform="translate(89,20)"/>
<path d="M0 0 C2.45823172 3.68734758 3.01242616 6.69699971 4 11 C3.01 10.67 2.02 10.34 1 10 C-0.1577506 6.52674819 -0.06866652 3.63932552 0 0 Z " fill="#010404" transform="translate(0,30)"/>
<path d="M0 0 C-5.14285714 4.42857143 -5.14285714 4.42857143 -9 5 C-9 4.01 -9 3.02 -9 2 C-3.375 -1.125 -3.375 -1.125 0 0 Z " fill="#4585B1" transform="translate(102,19)"/>
<path d="M0 0 C0.66 0.33 1.32 0.66 2 1 C-2.95 3.97 -2.95 3.97 -8 7 C-8.66 6.34 -9.32 5.68 -10 5 C-8.38007835 4.13624104 -6.75388139 3.28424146 -5.125 2.4375 C-4.22007813 1.96183594 -3.31515625 1.48617188 -2.3828125 0.99609375 C-1.20332031 0.50302734 -1.20332031 0.50302734 0 0 Z " fill="#C7DFED" transform="translate(94,19)"/>
<path d="M0 0 C0.66 0.33 1.32 0.66 2 1 C-2.625 5.875 -2.625 5.875 -6 7 C-6.66 6.34 -7.32 5.68 -8 5 C-6.71475739 4.13619741 -5.42157581 3.28419631 -4.125 2.4375 C-3.04605469 1.72400391 -3.04605469 1.72400391 -1.9453125 0.99609375 C-1.30335937 0.66738281 -0.66140625 0.33867188 0 0 Z " fill="#1B2626" transform="translate(98,94)"/>
<path d="M0 0 C0.33 0.99 0.66 1.98 1 3 C-0.98 3.99 -0.98 3.99 -3 5 C-3.99 4.01 -4.98 3.02 -6 2 C-3 0 -3 0 0 0 Z " fill="#94E0E5" transform="translate(26,92)"/>
<path d="M0 0 C0.33 2.97 0.66 5.94 1 9 C-1 7.25 -1 7.25 -3 5 C-3 3.68 -3 2.36 -3 1 C-1 0 -1 0 0 0 Z " fill="#BEEAEE" transform="translate(44,69)"/>
<path d="M0 0 C0.99 0.495 0.99 0.495 2 1 C2.4140625 3.06640625 2.4140625 3.06640625 2.625 5.5625 C2.69976562 6.38878906 2.77453125 7.21507812 2.8515625 8.06640625 C2.92503906 9.02353516 2.92503906 9.02353516 3 10 C2.34 10 1.68 10 1 10 C-0.1577506 6.52674819 -0.06866652 3.63932552 0 0 Z " fill="#010202" transform="translate(110,36)"/>
<path d="M0 0 C2.64 0.33 5.28 0.66 8 1 C6.68 1.33 5.36 1.66 4 2 C4.33 3.32 4.66 4.64 5 6 C3.35 5.67 1.7 5.34 0 5 C0.66 4.34 1.32 3.68 2 3 C1.34 2.67 0.68 2.34 0 2 C0 1.34 0 0.68 0 0 Z " fill="#7BB7DE" transform="translate(19,32)"/>
<path d="M0 0 C0.66 0 1.32 0 2 0 C2.33 2.97 2.66 5.94 3 9 C2.01 9.495 2.01 9.495 1 10 C0.67 6.7 0.34 3.4 0 0 Z " fill="#87DEE5" transform="translate(105,26)"/>
<path d="M0 0 C0.33 0.66 0.66 1.32 1 2 C-1.97 1.67 -4.94 1.34 -8 1 C-8.33 1.66 -8.66 2.32 -9 3 C-9 2.01 -9 1.02 -9 0 C-5.88173308 -1.55913346 -3.32926126 -0.66585225 0 0 Z " fill="#8FCBD7" transform="translate(70,5)"/>
<path d="M0 0 C0.66 0 1.32 0 2 0 C2 1.32 2 2.64 2 4 C2.99 3.67 3.98 3.34 5 3 C5.66 4.32 6.32 5.64 7 7 C6.01 6.67 5.02 6.34 4 6 C3.34 6.66 2.68 7.32 2 8 C1.34 5.36 0.68 2.72 0 0 Z " fill="#CFE6E2" transform="translate(69,43)"/>
<path d="M0 0 C0.66 0 1.32 0 2 0 C2.33 1.65 2.66 3.3 3 5 C1.1875 5.625 1.1875 5.625 -1 6 C-1.99 5.34 -2.98 4.68 -4 4 C-2.68 3.67 -1.36 3.34 0 3 C0 2.01 0 1.02 0 0 Z " fill="#B0E1EF" transform="translate(42,39)"/>
<path d="M0 0 C0.99 0 1.98 0 3 0 C3 0.66 3 1.32 3 2 C3.66 2 4.32 2 5 2 C5 2.66 5 3.32 5 4 C3.35 4.33 1.7 4.66 0 5 C0 3.35 0 1.7 0 0 Z " fill="#74BAE3" transform="translate(86,40)"/>
<path d="M0 0 C3.63 0 7.26 0 11 0 C11 0.33 11 0.66 11 1 C9.02 1 7.04 1 5 1 C4.67 1.99 4.34 2.98 4 4 C3.34 4 2.68 4 2 4 C2 3.01 2 2.02 2 1 C1.34 0.67 0.68 0.34 0 0 Z " fill="#B8E0EC" transform="translate(37,34)"/>
<path d="M0 0 C2.97 0 5.94 0 9 0 C8.67 1.32 8.34 2.64 8 4 C5.36 3.01 2.72 2.02 0 1 C0 0.67 0 0.34 0 0 Z " fill="#CDE6F5" transform="translate(28,32)"/>
<path d="M0 0 C0.99 0.33 1.98 0.66 3 1 C3 1.99 3 2.98 3 4 C3.99 4.33 4.98 4.66 6 5 C2.25 6.125 2.25 6.125 0 5 C0 4.34 0 3.68 0 3 C-0.66 2.67 -1.32 2.34 -2 2 C-1.34 2 -0.68 2 0 2 C0 1.34 0 0.68 0 0 Z " fill="#60A8D5" transform="translate(82,30)"/>
<path d="M0 0 C0 1.32 0 2.64 0 4 C-2.8125 4.625 -2.8125 4.625 -6 5 C-6.99 4.34 -7.98 3.68 -9 3 C-2.25 0 -2.25 0 0 0 Z " fill="#AACFD6" transform="translate(30,17)"/>
<path d="M0 0 C0.66 0.33 1.32 0.66 2 1 C-3.14285714 6.57142857 -3.14285714 6.57142857 -7 7 C-2.25 1.125 -2.25 1.125 0 0 Z " fill="#030707" transform="translate(102,92)"/>
<path d="M0 0 C0.66 1.32 1.32 2.64 2 4 C2.66 4 3.32 4 4 4 C3.67 5.98 3.34 7.96 3 10 C0.70366176 6.55549263 0.45983515 4.06187717 0 0 Z " fill="#142628" transform="translate(107,28)"/>
<path d="M0 0 C-1.3125 2 -1.3125 2 -3 4 C-3.99 4 -4.98 4 -6 4 C-6.33 2.68 -6.66 1.36 -7 0 C-4.3333581 -1.33332095 -2.83319697 -0.67102033 0 0 Z " fill="#83B7D2" transform="translate(48,11)"/>
<path d="M0 0 C0 0.99 0 1.98 0 3 C-4.455 3.495 -4.455 3.495 -9 4 C-6.43425105 1.43425105 -3.68548192 0 0 0 Z " fill="#BEEFF6" transform="translate(73,87)"/>
<path d="M0 0 C2.2477975 2.05233685 3.0022242 3.00667261 4 6 C3.01 6.66 2.02 7.32 1 8 C0 7 0 7 -0.0625 3.4375 C-0.041875 2.303125 -0.02125 1.16875 0 0 Z " fill="#7BC2DB" transform="translate(110,57)"/>
<path d="M0 0 C0.99 0 1.98 0 3 0 C3 2.31 3 4.62 3 7 C1.5 5.75 1.5 5.75 0 4 C0 2.68 0 1.36 0 0 Z " fill="#D1EADA" transform="translate(73,56)"/>
<path d="M0 0 C0.66 0 1.32 0 2 0 C3.25664978 2.90600261 4 4.79604584 4 8 C3.34 8 2.68 8 2 8 C0.74335022 5.09399739 0 3.20395416 0 0 Z " fill="#020606" transform="translate(4,48)"/>
<path d="M0 0 C0.66 0 1.32 0 2 0 C2.33 2.97 2.66 5.94 3 9 C0.90250005 6.64031256 0.03094296 5.45383006 -0.1875 2.25 C-0.125625 1.5075 -0.06375 0.765 0 0 Z " fill="#010303" transform="translate(107,23)"/>
<path d="M0 0 C1.4606285 2.64738916 2 3.89448334 2 7 C0.68 7.33 -0.64 7.66 -2 8 C-1.34 5.36 -0.68 2.72 0 0 Z " fill="#73B4C1" transform="translate(105,19)"/>
<path d="M0 0 C0.99 0.33 1.98 0.66 3 1 C2.01 1 1.02 1 0 1 C0 0.67 0 0.34 0 0 Z " fill="#B3FFFF" transform="translate(21,13)"/>
<path d="" fill="#000000" transform="translate(0,0)"/>
</svg>
